<?xml version="1.0" standalone="no"?>
<!DOCTYPE svg PUBLIC "-//W3C//DTD SVG 20010904//EN"
 "http://www.w3.org/TR/2001/REC-SVG-20010904/DTD/svg10.dtd">
<svg version="1.0" xmlns="http://www.w3.org/2000/svg"
 width="300.000000pt" height="300.000000pt" viewBox="0 0 300.000000 300.000000"
 preserveAspectRatio="xMidYMid meet">
<metadata>
Created by potrace 1.11, written by Peter Selinger 2001-2013
</metadata>
<g transform="translate(0.000000,300.000000) scale(0.100000,-0.100000)"
fill="#000000" stroke="none">
<path d="M1458 2893 c7 -3 16 -2 19 1 4 3 -2 6 -13 5 -11 0 -14 -3 -6 -6z"/>
<path d="M1528 2883 c6 -2 18 -2 25 0 6 3 1 5 -13 5 -14 0 -19 -2 -12 -5z"/>
<path d="M1588 2873 c7 -3 16 -2 19 1 4 3 -2 6 -13 5 -11 0 -14 -3 -6 -6z"/>
<path d="M1638 2863 c7 -3 16 -2 19 1 4 3 -2 6 -13 5 -11 0 -14 -3 -6 -6z"/>
<path d="M1718 2843 c7 -3 16 -2 19 1 4 3 -2 6 -13 5 -11 0 -14 -3 -6 -6z"/>
<path d="M1463 2823 c15 -2 37 -2 50 0 12 2 0 4 -28 4 -27 0 -38 -2 -22 -4z"/>
<path d="M1540 2816 c0 -2 13 -6 29 -8 17 -2 28 -1 25 4 -5 8 -54 12 -54 4z"/>
<path d="M1618 2803 c6 -2 18 -2 25 0 6 3 1 5 -13 5 -14 0 -19 -2 -12 -5z"/>
<path d="M2120 2807 c0 -3 48 -45 106 -93 100 -83 211 -199 251 -262 10 -15
20 -29 24 -32 3 -3 27 -38 52 -77 63 -98 139 -260 171 -361 30 -95 29 -92 15
-92 -5 0 -7 6 -3 13 4 6 -2 4 -14 -6 -19 -18 -20 -18 -18 -1 2 10 8 20 14 22
7 2 12 8 12 13 0 6 -9 5 -22 -1 -22 -11 -22 -10 -4 4 15 12 16 19 8 29 -7 8
-8 17 -4 22 4 4 -4 5 -18 1 -14 -3 -19 -3 -12 0 6 3 9 11 6 16 -5 7 -2 8 5 3
15 -9 -17 57 -32 67 -6 4 -15 4 -21 1 -5 -3 -6 -1 -2 6 4 6 11 9 16 6 12 -8
-8 29 -54 97 -21 32 -42 55 -47 52 -5 -3 -6 1 -4 8 7 18 -82 111 -97 102 -6
-4 -8 -3 -5 3 6 10 -18 38 -32 38 -3 0 -5 3 -4 7 3 7 -81 78 -92 78 -3 0 -3
-5 1 -12 4 -7 3 -8 -5 -4 -6 4 -9 11 -6 16 7 12 -82 73 -95 65 -6 -4 -9 -1 -8
6 2 6 -3 14 -11 17 -9 3 -11 0 -6 -8 5 -9 4 -11 -4 -6 -6 4 -9 11 -6 16 5 7
-69 61 -124 90 -19 9 -22 9 -16 0 6 -10 1 -11 -21 -5 -16 4 -35 8 -41 8 -7 0
-13 4 -13 9 0 5 -12 6 -27 2 -23 -4 -25 -3 -13 6 12 10 11 11 -7 7 -13 -3 -23
-1 -23 5 0 6 -7 8 -15 4 -8 -3 -15 -1 -15 5 0 7 -10 9 -26 5 -18 -5 -24 -3
-18 5 5 9 -3 10 -32 5 -30 -5 -36 -4 -24 4 12 9 7 10 -23 6 -24 -3 -35 -1 -31
5 4 7 -7 10 -29 8 -20 -2 -39 0 -43 4 -4 4 -64 7 -133 6 -86 0 -120 -3 -106
-10 13 -6 -1 -7 -42 -3 -38 4 -63 2 -63 -4 0 -5 -12 -7 -26 -4 -16 3 -25 1
-21 -5 3 -5 -6 -8 -24 -5 -16 2 -29 0 -29 -6 0 -6 -10 -8 -22 -4 -14 3 -19 1
-14 -6 4 -8 2 -10 -7 -6 -23 8 -99 -15 -91 -28 4 -7 3 -8 -5 -4 -15 10 -67 -7
-169 -56 -45 -21 -80 -43 -77 -48 3 -6 0 -7 -8 -4 -13 4 -197 -110 -197 -122
0 -3 5 -2 12 2 7 5 8 3 4 -5 -5 -7 -10 -10 -13 -7 -10 10 -44 -15 -37 -26 4
-6 3 -8 -2 -5 -12 7 -90 -60 -81 -69 4 -4 7 -2 7 4 0 7 5 12 11 12 8 0 8 -4
-1 -14 -6 -8 -17 -13 -24 -10 -15 6 -60 -41 -52 -54 3 -5 -1 -15 -9 -22 -8 -7
-12 -17 -8 -23 3 -6 1 -7 -6 -3 -6 4 -9 12 -6 17 4 5 3 9 0 9 -9 0 -54 -54
-54 -65 0 -5 11 4 24 20 14 17 25 25 25 19 0 -6 -9 -19 -20 -29 -11 -10 -17
-23 -13 -29 4 -6 0 -5 -9 2 -13 10 -19 7 -40 -20 -74 -100 -172 -271 -161
-281 3 -4 2 -7 -3 -7 -6 0 -18 -24 -29 -52 -10 -29 -22 -59 -28 -66 -7 -9 -4
-11 12 -9 15 2 29 17 42 46 11 25 13 39 6 34 -9 -5 -9 -3 0 9 7 8 9 19 5 23
-4 5 -1 4 7 0 11 -6 13 -4 8 9 -4 11 -3 15 4 11 6 -4 9 1 7 11 -2 12 3 19 14
19 9 0 20 4 25 8 4 5 2 7 -6 5 -7 -1 -16 3 -19 11 -3 8 0 11 7 7 10 -6 15 5
13 25 -1 4 9 5 21 2 22 -5 22 -5 2 11 -11 10 -14 14 -6 10 11 -5 13 -3 8 10
-4 10 -3 15 3 11 6 -3 10 -1 10 5 0 6 4 9 9 5 6 -3 8 3 6 13 -2 13 5 23 22 31
22 10 23 14 12 28 -8 9 -9 14 -3 10 7 -4 15 0 18 9 3 9 11 12 18 8 7 -4 5 2
-5 13 -14 16 -15 23 -6 29 7 4 10 3 5 -4 -10 -16 14 -26 27 -12 9 10 9 11 -3
5 -8 -4 1 6 20 23 19 17 32 31 29 32 -12 0 152 162 227 222 95 76 219 152 234
143 6 -4 9 -1 8 5 -4 15 150 83 169 75 9 -3 11 0 7 7 -5 7 0 9 14 6 14 -4 20
-2 15 5 -4 6 0 8 10 4 10 -3 17 -2 17 4 0 6 9 8 21 4 16 -5 19 -4 14 5 -6 10
-1 11 19 6 17 -4 25 -3 22 3 -8 12 47 24 76 16 19 -5 20 -4 8 5 -11 8 -3 10
35 6 37 -4 44 -3 25 4 -18 6 -3 8 50 5 48 -2 68 -1 55 5 -18 8 -17 9 8 9 16 1
26 -3 22 -9 -3 -5 -1 -10 4 -10 6 0 11 5 11 10 0 6 27 10 63 10 44 0 58 -3 47
-10 -9 -6 -10 -10 -3 -10 6 0 14 4 17 9 7 10 56 2 56 -10 0 -5 10 -9 23 -8 21
0 21 1 2 9 -13 6 -15 9 -5 9 27 1 60 -11 54 -20 -3 -5 0 -9 5 -9 6 0 11 4 11
9 0 5 24 3 53 -3 36 -9 51 -17 49 -27 -3 -11 -1 -11 9 -2 9 9 19 9 45 -2 18
-7 36 -10 40 -7 4 4 4 -2 0 -12 -5 -15 -4 -17 8 -7 10 8 16 9 21 1 3 -6 11 -7
17 -4 8 5 9 1 4 -12 -6 -15 -4 -16 5 -7 9 9 27 4 79 -22 65 -33 90 -58 70 -70
-11 -7 -53 19 -45 27 3 3 -1 8 -10 12 -10 3 -14 2 -10 -5 4 -5 -10 -3 -32 6
-157 67 -265 100 -390 120 -65 10 -260 8 -343 -4 -453 -67 -849 -383 -1028
-821 -87 -212 -122 -466 -98 -713 7 -65 11 -77 23 -72 13 4 13 3 4 -9 -9 -10
-9 -26 -1 -62 21 -95 43 -164 50 -159 5 3 6 -4 3 -15 -3 -11 0 -20 6 -20 6 0
8 -7 4 -17 -4 -10 -2 -14 4 -10 6 4 11 1 10 -6 -1 -32 4 -48 13 -42 6 3 7 -1
4 -9 -3 -9 -1 -16 6 -16 6 0 8 -5 5 -10 -3 -6 -1 -10 4 -10 6 0 10 -3 10 -8
-3 -19 2 -33 10 -27 5 3 13 0 17 -6 4 -8 3 -9 -4 -5 -21 13 -13 -7 32 -87 101
-176 318 -400 471 -485 l40 -23 -31 28 c-95 87 -160 138 -172 136 -7 0 -11 1
-8 5 3 3 -23 37 -58 76 -147 165 -264 363 -331 560 -27 78 -34 111 -26 119 18
18 13 31 -6 16 -12 -10 -15 -11 -9 -1 4 7 2 20 -6 30 -12 15 -11 16 5 3 10 -8
17 -9 17 -3 0 6 -5 14 -11 18 -6 3 -9 15 -6 25 3 11 1 16 -4 13 -6 -3 -7 7 -4
25 3 17 1 31 -4 31 -5 0 -9 12 -10 28 -7 201 -6 304 2 309 6 3 7 2 4 -3 -3 -6
-1 -16 4 -24 7 -11 8 -8 5 10 -2 14 -7 33 -11 43 -4 9 -4 25 1 35 6 14 8 12
14 -13 l8 -30 1 33 c0 17 -3 32 -9 32 -5 0 -10 7 -10 15 0 8 5 15 11 15 5 0 7
-4 4 -10 -3 -5 -2 -10 3 -10 5 0 12 18 16 40 4 24 11 38 16 35 6 -4 7 -11 4
-17 -5 -7 -2 -8 5 -3 9 5 10 10 2 18 -14 14 -14 47 -1 47 5 0 6 7 3 17 -4 10
-2 14 5 9 7 -4 10 1 7 14 -2 11 1 20 6 20 6 0 7 5 4 10 -3 6 -1 10 4 10 6 0
10 3 9 8 -2 11 21 62 42 92 11 15 17 30 13 34 -3 3 -1 6 7 6 10 0 10 4 -1 17
-8 9 -9 14 -3 10 20 -12 63 31 58 58 -2 13 1 27 7 31 7 4 9 3 5 -4 -3 -6 1 -9
11 -8 10 2 18 9 18 17 0 8 5 14 10 14 19 0 35 16 29 27 -5 7 -2 9 8 6 8 -4 15
0 15 7 0 21 -18 13 -50 -23 -16 -18 -32 -30 -35 -28 -6 6 46 78 65 89 7 5 11
12 8 16 -2 5 3 15 13 22 16 13 16 13 2 -6 -14 -19 -14 -19 3 -6 9 7 17 19 17
27 0 7 5 16 12 20 7 5 8 3 3 -7 -5 -8 16 10 47 39 30 30 66 61 80 70 14 9 44
30 68 45 168 113 337 166 550 172 88 3 126 1 110 -5 -19 -7 -13 -8 28 -6 28 2
52 0 52 -5 0 -5 8 -9 18 -9 14 0 15 2 2 10 -9 6 -10 10 -3 10 6 0 15 -5 18
-10 4 -6 11 -8 16 -5 5 4 9 2 9 -4 0 -5 -37 -8 -92 -6 -114 4 -110 3 -104 13
3 5 -1 9 -9 9 -30 0 -23 -25 8 -31 18 -4 45 -9 62 -13 16 -3 36 -13 43 -22 8
-9 11 -10 7 -3 -4 7 0 12 9 12 9 0 16 -8 16 -17 0 -11 3 -14 8 -8 5 7 17 7 40
0 18 -6 30 -14 26 -17 -3 -4 4 -4 17 -1 14 4 20 2 16 -4 -4 -6 0 -14 9 -17 9
-4 13 -2 8 5 -4 8 0 8 14 0 14 -7 19 -17 16 -29 -4 -10 -2 -13 3 -7 11 15 23
13 60 -9 25 -16 30 -23 24 -40 -5 -12 -6 -27 -3 -35 3 -9 0 -11 -9 -6 -8 5
-11 5 -7 0 4 -4 1 -13 -8 -19 -8 -6 -16 -21 -17 -34 0 -12 -4 -22 -8 -22 -13
0 -18 -29 -7 -36 6 -4 8 -3 4 4 -3 5 -2 12 3 14 5 1 11 10 13 18 2 8 7 18 12
22 13 9 37 -2 30 -13 -3 -5 -1 -8 4 -7 20 6 8 -36 -18 -65 -16 -17 -18 -16
-43 3 -14 12 -29 20 -32 20 -4 -1 -10 2 -13 6 -4 4 0 4 8 0 8 -4 3 2 -13 14
-15 12 -24 27 -20 33 4 7 1 7 -9 -1 -9 -7 -19 -9 -22 -4 -8 13 -106 59 -155
72 -23 6 -50 13 -59 16 -9 3 1 -5 23 -17 22 -13 44 -22 48 -21 5 1 6 -2 3 -7
-4 -6 -25 -4 -55 5 -26 7 -71 15 -99 16 -28 1 -49 5 -46 9 2 4 -6 9 -19 13
-33 9 -49 7 -42 -4 3 -5 1 -10 -4 -10 -6 0 -11 -4 -11 -10 0 -5 6 -7 14 -4 8
3 22 2 30 -3 11 -6 -4 -10 -46 -11 -34 -2 -79 -7 -100 -11 -32 -8 -38 -7 -34
5 3 7 0 16 -6 20 -7 4 -8 3 -4 -4 4 -7 2 -12 -5 -12 -7 0 -9 -3 -6 -7 4 -3
-17 -15 -46 -25 -28 -10 -56 -20 -62 -22 -5 -2 -14 -4 -20 -6 -5 -1 -18 -6
-29 -12 -13 -7 -21 -6 -27 3 -7 11 -9 11 -9 -1 -1 -16 -160 -126 -160 -110 0
4 6 11 13 13 7 3 7 6 1 6 -11 1 -49 -36 -49 -48 0 -6 -5 -7 -33 -10 -7 0 -10
-6 -7 -11 4 -6 12 -7 18 -4 7 4 8 3 4 -2 -5 -5 -16 -9 -24 -9 -9 0 -18 -6 -21
-14 -3 -9 0 -11 8 -6 9 6 11 4 6 -4 -5 -7 -10 -10 -13 -7 -3 3 -15 0 -27 -6
-21 -11 -21 -10 -3 10 26 29 3 39 -29 13 -15 -12 -23 -21 -19 -21 5 0 18 8 29
18 21 17 21 17 4 -4 -12 -13 -14 -24 -8 -30 6 -6 2 -10 -12 -11 -18 -2 -20 0
-8 7 8 5 10 10 4 10 -5 0 -23 -14 -40 -32 -16 -18 -21 -26 -11 -18 11 8 29 15
40 17 18 2 17 0 -6 -13 -16 -8 -25 -20 -21 -26 4 -7 3 -8 -4 -4 -7 4 -12 1
-12 -7 0 -8 -9 -22 -20 -32 -11 -10 -17 -21 -15 -25 3 -4 -2 -10 -10 -14 -9
-3 -12 -12 -8 -23 3 -10 3 -15 -2 -11 -8 7 -80 -130 -76 -146 1 -4 -2 -13 -7
-20 -32 -39 -64 -230 -61 -361 1 -55 2 -117 2 -137 -1 -21 3 -38 9 -38 5 0 6
-9 3 -20 -4 -11 -2 -20 4 -20 6 0 10 -3 9 -7 0 -5 2 -16 7 -27 6 -13 3 -21 -8
-28 -25 -13 -21 -31 3 -18 25 13 26 2 3 -16 -16 -12 -16 -13 7 -9 23 4 23 3 7
-9 -17 -13 -14 -51 4 -40 5 3 6 -2 3 -10 -6 -15 6 -21 29 -17 5 1 6 -3 2 -9
-3 -6 -11 -7 -17 -4 -16 10 8 -31 85 -149 43 -64 76 -106 84 -103 7 3 15 0 19
-6 4 -7 3 -8 -4 -4 -7 4 -12 2 -12 -3 0 -6 5 -11 11 -11 5 0 7 -5 3 -12 -4 -6
-3 -8 3 -5 6 4 16 0 23 -8 9 -11 16 -12 25 -5 9 8 12 5 11 -12 -1 -14 4 -22
12 -20 8 1 11 -2 8 -7 -8 -12 78 -83 95 -79 7 2 13 -2 14 -9 0 -6 20 -25 45
-42 47 -32 66 -39 54 -19 -4 7 -3 8 5 4 6 -4 9 -11 6 -15 -2 -5 21 -26 53 -48
63 -44 102 -67 102 -59 0 3 -14 13 -30 21 -29 15 -33 35 -7 35 8 0 7 -3 -2 -9
-10 -6 -3 -12 25 -22 22 -8 44 -14 49 -14 6 0 13 -4 16 -9 4 -5 20 -9 37 -10
17 0 28 -5 25 -10 -3 -4 5 -5 17 -1 17 5 20 4 15 -5 -6 -10 -1 -11 19 -6 16 4
25 3 22 -3 -8 -12 38 -23 71 -15 19 4 24 3 14 -4 -16 -11 85 -27 111 -17 9 4
19 2 23 -4 4 -7 51 -11 128 -10 87 1 112 4 87 10 -24 5 -12 6 38 3 39 -3 72
-1 72 4 0 5 14 7 30 4 17 -2 30 0 30 5 0 6 11 8 25 5 14 -2 25 0 25 6 0 6 10
8 22 4 13 -3 19 -1 15 5 -4 6 4 8 20 5 19 -4 24 -2 18 8 -5 8 -4 11 3 6 15 -9
63 4 56 15 -3 5 2 6 10 3 42 -16 428 189 410 218 -4 7 -2 8 5 4 15 -10 43 13
34 27 -4 6 -1 7 6 2 14 -8 63 33 55 47 -3 5 0 7 8 6 8 -2 13 5 12 18 -1 11 5
21 12 21 10 0 11 -4 3 -14 -6 -7 -8 -13 -4 -13 13 0 76 69 71 78 -3 5 4 18 17
28 l22 19 -19 -23 c-13 -15 -15 -21 -5 -17 15 7 109 118 109 130 0 4 -8 1 -17
-6 -14 -12 -16 -12 -8 0 6 11 4 13 -9 8 -10 -4 -15 -3 -11 3 4 6 17 8 30 6 20
-4 31 5 63 53 56 81 113 187 105 195 -3 3 -1 6 5 6 7 0 11 3 10 8 -1 4 3 18 9
32 6 14 11 29 11 34 0 5 5 12 11 15 6 4 12 16 14 26 2 11 7 29 11 40 5 11 14
37 22 58 8 20 10 37 5 37 -5 0 -12 -13 -16 -30 -4 -16 -11 -32 -15 -35 -5 -3
-3 12 5 35 8 22 11 40 6 40 -4 0 -15 -25 -25 -55 -9 -31 -21 -53 -26 -50 -6 3
-7 0 -4 -8 3 -8 -2 -31 -10 -51 -8 -20 -13 -44 -9 -54 4 -13 2 -13 -10 3 -16
20 -16 19 -10 -4 4 -15 2 -22 -4 -18 -6 4 -9 -6 -8 -23 1 -16 -2 -27 -6 -24
-4 2 -10 -5 -14 -16 -4 -12 -11 -17 -18 -13 -7 4 -5 -2 3 -12 9 -11 10 -16 3
-11 -8 4 -13 2 -13 -4 0 -6 -5 -8 -12 -4 -10 6 -10 4 0 -8 10 -13 10 -17 -4
-22 -9 -4 -14 -12 -10 -22 3 -8 2 -12 -4 -9 -6 3 -10 0 -10 -7 0 -9 -3 -9 -10
2 -5 8 -10 10 -10 4 0 -5 6 -16 13 -23 10 -10 9 -12 -3 -9 -9 2 -14 -4 -14
-14 1 -11 -4 -14 -14 -11 -9 4 -13 2 -9 -4 4 -6 0 -16 -8 -23 -8 -7 -15 -9
-15 -5 0 4 -20 -19 -44 -52 -25 -32 -68 -83 -98 -113 -29 -30 -52 -58 -50 -63
1 -4 -2 -6 -6 -5 -4 2 -32 -18 -62 -43 -86 -71 -147 -112 -159 -104 -7 3 -10
1 -9 -5 4 -15 -152 -102 -170 -95 -7 3 -11 1 -7 -4 7 -13 -80 -45 -96 -36 -8
6 -10 4 -4 -5 6 -10 3 -12 -13 -8 -14 4 -20 2 -16 -4 4 -6 -2 -8 -16 -3 -14 5
-20 3 -16 -3 8 -13 -49 -26 -65 -16 -8 5 -9 3 -4 -6 6 -10 2 -11 -19 -6 -20 5
-26 4 -20 -5 5 -9 -1 -10 -25 -6 -20 4 -30 3 -26 -3 4 -6 -11 -8 -39 -5 -29 3
-46 0 -46 -6 0 -6 -8 -9 -19 -6 -10 2 -26 0 -36 -6 -13 -7 -16 -6 -11 2 4 6 2
11 -3 11 -6 0 -11 -4 -11 -10 0 -5 -8 -10 -17 -10 -15 0 -16 2 -3 10 11 7 -2
10 -42 10 -32 0 -58 -4 -58 -10 0 -5 -8 -10 -17 -10 -15 0 -16 2 -3 10 8 5 10
10 5 10 -6 0 -16 -5 -23 -12 -8 -8 -12 -8 -12 -1 0 6 -11 8 -25 5 -17 -3 -25
0 -25 9 0 12 -2 12 -9 1 -10 -17 -47 -11 -43 6 3 15 -15 16 -20 2 -5 -15 -84
3 -80 18 1 7 -2 12 -8 12 -5 0 -10 -5 -10 -11 0 -6 -6 -9 -12 -6 -7 2 -12 11
-10 18 3 11 1 11 -8 3 -17 -17 -113 15 -105 34 5 13 3 13 -11 1 -14 -11 -18
-11 -21 -1 -3 6 -9 10 -14 6 -5 -3 -9 0 -9 6 0 6 -5 8 -12 4 -8 -5 -9 -2 -4
11 5 14 4 15 -7 7 -9 -8 -24 -5 -54 10 -23 12 -40 25 -37 29 2 4 -2 10 -8 13
-7 3 -2 3 12 -1 23 -5 24 -5 10 13 -14 18 -14 18 2 5 10 -7 16 -17 13 -21 -3
-4 2 -11 11 -14 8 -3 12 -2 9 4 -9 15 -1 13 67 -19 185 -84 346 -115 553 -108
207 7 329 36 511 122 413 194 707 614 759 1085 9 80 9 250 0 342 -6 57 -10 68
-22 63 -13 -4 -14 -3 -3 9 9 12 8 30 -6 90 -9 41 -22 72 -27 69 -5 -3 -6 3 -2
16 3 11 2 21 -3 21 -5 0 -10 6 -9 13 1 31 -4 48 -12 43 -5 -4 -7 4 -3 16 3 11
1 19 -4 16 -5 -4 -10 5 -11 19 0 14 -5 28 -10 32 -4 3 -9 13 -11 21 -2 8 -8
17 -13 18 -5 2 -7 8 -3 13 5 9 -62 139 -72 139 -3 0 -2 -4 1 -10 3 -5 4 -10 1
-10 -3 0 -10 10 -17 21 -9 17 -8 20 1 14 19 -12 -18 47 -54 87 -17 19 -25 26
-17 16 8 -10 11 -21 8 -25 -6 -5 -17 6 -64 66 -21 27 -14 38 8 12 11 -13 22
-21 25 -19 8 9 -194 209 -256 254 -62 46 -130 88 -130 81z m-710 -167 c-18 -6
-9 -8 38 -9 34 -1 62 2 62 7 0 9 106 10 115 0 4 -3 20 -2 36 2 22 7 29 5 29
-5 0 -9 9 -12 30 -9 17 3 30 2 30 -2 0 -12 -32 -44 -44 -44 -6 0 -4 5 4 11 12
9 11 10 -8 6 -12 -3 -20 -2 -17 3 8 13 -34 17 -189 15 -82 0 -144 1 -138 3 6
2 9 9 6 16 -3 9 7 13 33 13 33 1 35 0 13 -7z m77 4 c-3 -3 -12 -4 -19 -1 -8 3
-5 6 6 6 11 1 17 -2 13 -5z m903 -55 c16 -28 9 -24 -35 23 -38 40 -39 40 -7
19 17 -12 37 -31 42 -42z m-1046 36 c-4 -8 -16 -15 -28 -14 -21 0 -21 1 -1 10
17 8 16 9 -7 6 -15 -2 -25 0 -22 4 3 5 18 9 34 9 22 0 28 -4 24 -15z m732 -1
c18 -14 18 -15 -4 -4 -12 6 -28 8 -34 4 -7 -4 -8 -3 -4 4 10 16 18 15 42 -4z
m-820 -9 c-16 -17 -66 -20 -66 -5 0 6 11 8 25 6 14 -3 25 0 25 5 0 5 7 9 16 9
14 0 14 -2 0 -15z m582 -10 c12 0 22 -4 22 -9 0 -4 7 -5 16 -2 8 3 12 2 9 -4
-3 -6 -1 -10 6 -10 6 0 18 -8 26 -17 8 -10 11 -12 8 -4 -6 9 -1 9 17 -3 14 -9
26 -15 29 -14 2 2 3 1 1 -1 -6 -10 -36 -9 -54 0 -27 14 -80 20 -72 8 3 -6 13
-8 21 -5 9 4 11 2 7 -6 -5 -7 -2 -9 8 -5 19 7 56 -17 40 -27 -5 -3 -34 6 -64
21 -29 15 -56 26 -60 25 -13 -4 -9 16 5 21 6 3 2 4 -10 4 -12 -1 -19 -6 -15
-12 3 -5 -1 -4 -10 3 -13 10 -17 10 -21 0 -3 -7 -5 -3 -3 10 3 29 25 44 51 35
11 -4 30 -7 43 -8z m-658 -5 c0 -5 -4 -10 -10 -10 -5 0 -10 5 -10 10 0 6 5 10
10 10 6 0 10 -4 10 -10z m484 2 c3 -5 -8 -6 -25 -4 -16 2 -29 6 -29 8 0 8 49
4 54 -4z m-519 -12 c-3 -5 -14 -10 -23 -9 -14 0 -13 2 3 9 27 11 27 11 20 0z
m285 -32 c0 -5 -8 -7 -17 -4 -10 4 -14 3 -9 -1 10 -10 87 -12 80 -2 -2 5 -11
6 -18 3 -8 -3 -17 -1 -21 5 -4 7 2 10 17 7 13 -3 32 -5 43 -5 17 -1 17 -3 5
-11 -9 -6 -10 -10 -3 -10 6 0 15 5 19 12 5 8 10 7 18 -4 7 -10 24 -15 44 -13
18 1 32 -1 32 -6 0 -5 3 -8 8 -7 22 6 89 -15 89 -28 0 -8 -4 -14 -8 -14 -5 0
-6 -7 -3 -15 4 -8 1 -15 -5 -15 -6 0 -11 5 -11 10 0 6 -6 10 -12 9 -41 -5 -67
13 -35 24 6 2 3 2 -8 0 -39 -9 -65 -11 -65 -7 0 3 10 9 23 15 19 8 18 9 -8 4
-64 -11 -75 -12 -75 -4 0 4 6 9 13 12 6 3 2 4 -10 4 -12 -1 -19 -6 -15 -12 3
-5 -2 -4 -11 4 -12 9 -17 10 -17 2 0 -9 -5 -9 -20 -1 -15 8 -20 8 -21 -2 0 -7
-4 -4 -9 7 -5 11 -9 14 -9 8 -1 -7 -8 -13 -17 -13 -8 0 -12 5 -9 10 3 6 1 10
-4 10 -6 0 -11 -8 -11 -17 0 -10 -4 -14 -8 -8 -8 12 -52 12 -71 0 -10 -5 -12
-4 -7 3 4 7 1 12 -9 12 -9 0 -14 -4 -10 -9 3 -6 -9 -7 -31 -4 -30 5 -36 3 -29
-8 5 -8 5 -11 0 -7 -4 4 -15 2 -23 -5 -11 -8 -14 -8 -9 0 4 6 1 14 -5 16 -8 4
-7 6 4 6 9 1 20 5 23 11 4 6 -2 7 -17 1 -13 -5 -22 -16 -22 -25 2 -12 -3 -15
-18 -10 -14 4 -18 2 -14 -5 4 -6 0 -11 -9 -11 -12 0 -15 5 -11 16 4 10 1 14
-6 12 -7 -3 -13 -10 -13 -16 0 -19 -15 -26 -15 -6 -1 16 -3 15 -16 -6 -8 -14
-13 -17 -10 -7 3 9 1 17 -4 17 -6 0 -10 -4 -10 -8 0 -4 -9 -8 -19 -9 -28 -2
-168 -74 -252 -130 -112 -73 -292 -260 -282 -291 3 -7 1 -11 -4 -10 -4 2 -10
-1 -12 -7 -3 -5 -13 -19 -23 -29 -21 -23 -24 -40 -4 -33 16 6 16 -17 -1 -34
-8 -8 -13 -7 -18 2 -5 7 -4 10 3 5 6 -3 13 -2 16 3 3 5 -1 11 -9 15 -11 4 -26
-17 -57 -77 -23 -45 -43 -84 -44 -87 -1 -3 -5 -15 -9 -27 -4 -13 -11 -23 -14
-23 -8 0 -11 -18 -11 -56 0 -12 -7 -21 -16 -21 -9 0 -11 4 -5 10 5 5 7 15 5
21 -5 14 55 167 94 241 99 186 286 384 442 471 19 10 37 22 40 25 5 7 148 70
165 73 6 1 15 5 21 8 6 4 21 9 35 12 55 11 70 15 78 21 5 3 35 7 67 10 32 3
59 6 60 8 9 9 154 5 154 -5z m1010 -23 c13 -14 21 -25 17 -25 -3 0 -17 11 -31
25 -14 14 -22 25 -17 25 4 0 18 -11 31 -25z m-447 -10 c-3 -9 -8 -14 -10 -11
-3 3 -2 9 2 15 9 16 15 13 8 -4z m-52 -28 c-10 -9 -11 -8 -5 6 3 10 9 15 12
12 3 -3 0 -11 -7 -18z m89 11 c0 -4 0 -10 0 -13 -1 -9 24 -31 40 -38 13 -4 12
-6 -1 -6 -9 -1 -24 8 -34 19 -10 11 -14 20 -10 20 5 0 1 6 -9 13 -16 12 -16
14 -2 14 9 0 16 -4 16 -9z m42 -18 c-3 -11 0 -11 12 -1 13 11 17 10 22 -3 3
-9 10 -13 15 -10 5 3 9 0 9 -6 0 -6 5 -8 13 -4 8 5 7 2 -2 -9 -12 -15 -12 -17
2 -12 8 4 18 1 22 -4 3 -6 11 -9 16 -6 5 4 9 2 9 -4 0 -5 9 -13 20 -16 11 -4
18 -11 15 -16 -4 -5 0 -9 7 -9 8 0 20 -9 28 -20 8 -11 18 -20 23 -20 5 0 25
-17 43 -37 19 -20 34 -34 34 -29 0 4 5 4 10 1 6 -4 8 -11 5 -16 -4 -5 -27 7
-53 26 -26 19 -67 49 -92 67 -25 18 -47 35 -50 38 -11 11 -70 50 -75 50 -3 0
-4 -4 -1 -8 3 -5 -1 -9 -8 -9 -8 0 -12 7 -9 14 3 8 -4 21 -16 29 -23 16 -29
39 -8 31 6 -2 11 -10 9 -17z m118 10 c0 -5 -4 -10 -9 -10 -6 0 -13 5 -16 10
-3 6 1 10 9 10 9 0 16 -4 16 -10z m-393 -26 c69 -32 89 -49 67 -58 -8 -3 -13
-2 -10 3 6 9 -54 35 -62 27 -2 -3 7 -8 22 -12 14 -3 26 -10 26 -15 0 -16 -42
-10 -57 9 -8 9 -12 11 -8 5 8 -17 -26 -5 -41 14 -10 12 -8 53 2 53 2 0 29 -12
61 -26z m460 -20 c3 -7 9 -12 13 -9 9 5 180 -163 180 -177 0 -5 -6 -6 -12 -2
-9 5 -9 2 1 -9 16 -20 26 -23 15 -4 -5 8 -2 8 9 -2 18 -14 24 -36 7 -26 -16
10 -11 -1 7 -16 15 -12 16 -12 9 1 -8 13 -7 13 7 0 21 -20 101 -183 121 -245
25 -79 45 -175 36 -175 -4 0 -10 19 -14 41 -11 68 -39 159 -48 159 -5 0 -6 -5
-2 -11 4 -6 10 -25 14 -43 4 -17 11 -40 15 -51 6 -14 5 -17 -2 -10 -6 6 -16
28 -23 50 -32 102 -188 363 -231 385 -11 6 -16 16 -13 22 4 6 3 8 -3 5 -6 -4
-19 3 -29 16 -19 21 -19 21 1 7 18 -14 19 -14 6 2 -7 10 -18 15 -23 12 -12 -8
-59 36 -52 48 3 5 2 8 -3 7 -16 -3 -28 2 -52 20 l-24 19 42 0 c28 1 44 -4 48
-14z m-617 -10 c0 -2 -9 -4 -20 -4 -11 0 -20 4 -20 9 0 5 9 7 20 4 11 -3 20
-7 20 -9z m45 -14 c3 -5 2 -10 -4 -10 -5 0 -13 5 -16 10 -3 6 -2 10 4 10 5 0
13 -4 16 -10z m40 -18 c-3 -3 -11 0 -18 7 -9 10 -8 11 6 5 10 -3 15 -9 12 -12z
m844 -30 c15 -22 17 -29 6 -29 -8 0 -12 4 -9 9 3 4 1 8 -4 8 -5 0 -12 9 -15
20 -7 27 -2 25 22 -8z m-763 2 c19 -15 19 -15 -1 -6 -11 5 -27 12 -35 15 -13
5 -13 6 1 6 8 1 24 -6 35 -15z m137 -37 c-5 -8 -8 -8 -11 1 -2 7 -8 10 -13 6
-5 -3 -9 0 -9 6 0 6 -4 9 -9 6 -10 -7 -23 19 -14 28 10 10 64 -35 56 -47z m8
32 c19 -16 20 -18 4 -10 -34 17 -51 31 -39 31 7 0 22 -9 35 -21z m-1392 -12
c-2 -1 -13 -9 -24 -17 -19 -14 -19 -14 -6 3 7 9 18 17 24 17 6 0 8 -1 6 -3z
m1351 -32 c0 -10 -16 -4 -40 16 l-25 20 33 -16 c17 -8 32 -18 32 -20z m294 10
c15 -14 30 -25 34 -25 4 0 18 -12 32 -27 l25 -26 -40 21 c-41 21 -107 82 -88
82 5 0 22 -11 37 -25z m-211 -13 c-3 -9 -3 -14 2 -10 9 9 38 -19 41 -39 2 -12
-2 -11 -17 3 -33 30 -30 9 4 -26 23 -24 26 -30 10 -21 -12 6 -28 20 -36 31 -8
11 -18 17 -23 12 -4 -4 -3 1 5 10 11 14 9 19 -8 30 -27 17 -27 31 0 23 16 -5
19 -4 14 5 -5 8 -4 11 3 6 6 -4 8 -14 5 -24z m146 -77 c0 -5 -6 1 -14 15 -8
14 -14 30 -14 35 0 6 6 -1 14 -15 8 -14 14 -29 14 -35z m-1679 20 c-7 -8 -17
-15 -22 -15 -11 0 14 29 26 30 5 0 3 -7 -4 -15z m1356 -3 c-2 -4 9 -14 26 -21
22 -10 27 -16 17 -22 -8 -5 -11 -9 -7 -9 4 0 -4 -11 -18 -25 -29 -29 -32 -29
-58 -10 -18 13 -18 15 0 54 11 22 25 41 32 41 7 0 11 -4 8 -8z m269 -20 c-3
-3 -11 0 -18 7 -9 10 -8 11 6 5 10 -3 15 -9 12 -12z m175 7 c0 -5 5 -7 12 -3
6 4 8 3 4 -4 -3 -6 7 -16 24 -24 16 -7 30 -16 30 -19 0 -3 25 -32 55 -63 30
-32 57 -66 60 -77 4 -11 11 -17 16 -14 5 3 6 -2 2 -11 -4 -11 -3 -15 5 -10 6
3 13 2 16 -3 4 -5 0 -8 -9 -7 -8 1 -31 24 -51 52 -21 27 -50 61 -65 76 -15 14
-31 34 -37 43 -6 12 -12 14 -16 6 -4 -6 6 -23 21 -38 29 -30 65 -72 98 -118
31 -43 83 -168 90 -218 4 -26 11 -44 16 -42 4 3 6 14 4 25 -3 13 0 18 7 14 7
-5 9 -1 5 9 -3 10 -2 17 3 17 6 0 10 -6 10 -14 0 -8 3 -23 6 -33 5 -15 4 -15
-5 -3 -9 13 -11 13 -11 -2 0 -9 3 -18 8 -21 4 -2 1 -2 -6 -1 -7 2 -15 -3 -18
-11 -4 -8 -11 -12 -18 -8 -7 5 -7 2 1 -8 7 -8 10 -27 7 -42 -3 -20 0 -27 11
-27 8 0 15 5 15 11 0 5 -4 8 -9 4 -6 -3 -6 6 -1 24 4 16 6 31 4 34 -2 2 3 4
11 4 8 0 15 -4 15 -9 0 -4 -5 -8 -11 -8 -7 0 -4 -11 6 -26 9 -15 12 -23 6 -20
-6 4 -11 4 -12 -1 0 -4 -2 -16 -4 -25 -2 -10 1 -18 6 -18 5 0 9 -7 9 -15 0 -8
-7 -15 -16 -15 -8 0 -12 -5 -9 -10 4 -6 10 -8 15 -5 5 3 7 -3 5 -13 -2 -11 -6
-36 -9 -57 -3 -20 -11 -46 -17 -56 -7 -15 -7 -24 2 -35 9 -12 9 -13 -2 -9 -10
4 -19 -6 -27 -28 -7 -18 -22 -43 -35 -55 -18 -17 -25 -18 -39 -8 -15 11 -15
13 5 26 20 12 21 12 8 -3 -12 -15 -11 -17 4 -17 14 0 16 6 11 31 -5 25 -3 30
9 25 8 -3 19 3 25 14 15 28 12 38 -5 16 -8 -11 -15 -15 -15 -8 0 6 10 18 21
26 13 9 22 26 23 44 1 17 4 28 7 26 4 -2 9 3 13 11 3 8 1 15 -4 15 -6 0 -10 5
-10 11 0 5 4 8 9 5 15 -10 21 22 6 34 -9 8 -11 19 -5 41 6 21 5 29 -3 29 -8 0
-13 -18 -14 -49 -1 -58 -31 -144 -46 -134 -6 4 -8 0 -4 -10 8 -22 -19 -43 -37
-28 -11 9 -16 9 -22 0 -4 -7 -3 -9 3 -6 6 4 14 0 17 -9 5 -12 2 -15 -10 -10
-12 4 -15 2 -10 -9 3 -8 1 -15 -3 -15 -9 0 -23 25 -26 45 0 6 -7 9 -14 7 -16
-3 -41 16 -41 32 0 7 3 7 8 1 4 -5 15 -11 25 -13 16 -3 22 13 18 47 -2 7 2 10
8 6 6 -3 11 -3 12 2 0 4 2 16 4 25 2 10 -2 16 -7 15 -6 -1 -12 4 -13 11 -2 8
-1 8 2 1 4 -8 8 -7 14 2 6 10 9 11 9 2 0 -7 8 -13 17 -13 13 0 14 -3 5 -12 -8
-8 -8 -15 -2 -24 7 -8 6 -13 -5 -18 -11 -4 -14 -2 -9 6 5 7 3 8 -5 4 -7 -5
-10 -14 -7 -22 3 -8 1 -14 -4 -14 -6 0 -10 -8 -10 -17 1 -14 6 -12 27 12 20
23 24 25 19 9 -4 -14 -1 -26 9 -34 9 -7 15 -8 15 -2 0 6 -6 12 -12 15 -9 3 -7
10 7 21 11 9 16 16 10 15 -23 -3 -25 3 -11 36 8 19 12 35 8 35 -4 0 -7 28 -8
63 -1 104 -7 157 -18 157 -6 0 -4 5 4 10 8 5 10 10 4 10 -6 0 -10 11 -9 25 2
14 0 23 -5 20 -12 -7 -40 5 -40 17 0 6 6 5 15 -2 9 -8 15 -9 15 -2 0 6 -4 13
-9 16 -5 3 -7 15 -4 25 3 10 0 22 -6 25 -6 4 -11 17 -11 29 0 13 -7 32 -15 43
-8 12 -12 24 -9 26 2 3 -14 38 -36 78 -23 39 -39 75 -36 78 4 3 -8 21 -26 39
-17 18 -27 33 -20 33 7 0 12 -5 12 -11z m385 -9 c-3 -5 -1 -10 6 -10 7 0 10
-3 6 -6 -9 -9 -28 6 -22 17 4 5 8 9 11 9 3 0 2 -4 -1 -10z m-1390 -10 c3 -6
-1 -7 -9 -4 -18 7 -21 14 -7 14 6 0 13 -4 16 -10z m909 2 c3 -5 -1 -9 -9 -9
-8 0 -12 4 -9 9 3 4 7 8 9 8 2 0 6 -4 9 -8z m231 -36 c11 -12 34 -39 50 -61
l29 -40 -42 40 c-23 22 -41 44 -42 48 0 4 -12 20 -27 34 -16 14 -19 20 -8 12
11 -7 29 -22 40 -33z m-1945 30 c0 -2 -8 -10 -17 -17 -16 -13 -17 -12 -4 4 13
16 21 21 21 13z m1676 -31 c22 -29 24 -38 14 -50 -15 -18 0 -20 20 -2 8 6 11
8 7 3 -4 -5 0 -17 9 -27 9 -10 13 -22 10 -28 -4 -6 -26 10 -51 36 -25 26 -43
49 -40 51 3 3 12 -3 19 -14 26 -35 26 -9 0 29 -31 47 -24 48 12 2z m-45 8 c13
-16 12 -17 -3 -4 -10 7 -18 15 -18 17 0 8 8 3 21 -13z m-686 -3 c3 -6 -1 -7
-9 -4 -18 7 -21 14 -7 14 6 0 13 -4 16 -10z m499 -2 c-3 -4 0 -8 7 -8 11 0 30
-18 79 -76 27 -32 38 -58 30 -74 -4 -8 -7 -27 -6 -42 2 -30 -4 -34 -20 -18 -7
7 -11 6 -11 -4 0 -8 4 -13 9 -10 4 3 8 -6 8 -20 0 -15 -6 -26 -14 -26 -7 0
-22 -11 -32 -25 -19 -26 -72 -67 -60 -46 10 15 -13 53 -26 45 -7 -4 -8 -3 -4
4 6 11 -19 72 -30 72 -2 0 0 -9 6 -19 12 -23 -3 -37 -35 -34 -15 2 -14 0 5 -7
14 -6 31 -25 38 -43 7 -17 18 -40 23 -49 6 -13 5 -18 -3 -18 -7 0 -21 20 -32
45 -10 25 -27 50 -37 55 -11 7 -16 16 -12 27 5 12 3 14 -7 8 -8 -5 -11 -4 -7
2 4 6 -3 22 -14 37 -11 14 -19 32 -17 38 3 7 22 -11 42 -40 21 -28 42 -49 47
-46 5 3 5 13 -1 25 -6 11 -8 23 -5 28 2 5 -10 22 -28 37 -17 16 -32 34 -32 39
0 6 13 27 29 48 24 32 31 35 45 25 14 -12 15 -11 2 5 -12 16 -11 21 13 46 24
25 63 40 50 19z m-551 -32 c21 -3 47 -11 58 -16 10 -6 19 -7 19 -3 0 4 7 -2
16 -13 8 -10 13 -13 9 -6 -11 21 11 13 50 -18 21 -16 33 -30 26 -30 -6 0 -20
9 -31 20 -21 21 -35 27 -25 10 4 -7 -3 -7 -20 0 -35 13 -42 13 -42 -4 0 -8 8
-11 20 -8 13 3 18 1 14 -5 -4 -7 0 -9 10 -7 23 5 69 -19 66 -34 -2 -7 2 -12 9
-12 9 0 9 -3 0 -12 -17 -17 -15 -33 2 -19 10 9 15 8 19 -2 7 -20 -33 -14 -44
6 -5 9 -16 14 -24 11 -8 -4 -15 -1 -15 7 0 7 -3 9 -6 6 -4 -3 -16 -2 -27 4
-11 7 -17 7 -13 1 3 -5 26 -19 51 -31 25 -12 43 -25 40 -30 -3 -5 3 -7 14 -4
16 4 18 0 13 -23 -4 -25 -3 -26 21 -22 36 7 60 -21 61 -71 0 -22 5 -37 9 -34
5 3 7 18 5 34 -3 21 -1 26 7 19 7 -6 12 -22 13 -38 0 -15 1 -32 2 -37 5 -24
-1 -34 -17 -29 -15 5 -16 4 -3 -5 25 -18 38 -12 42 18 2 17 1 28 -2 26 -4 -2
-7 2 -7 10 0 8 3 15 7 15 7 0 41 -73 44 -95 1 -8 5 -18 9 -21 4 -4 7 -18 7
-31 0 -13 4 -23 9 -23 5 0 5 16 0 38 -5 20 -12 49 -15 65 -4 15 -11 27 -16 27
-5 0 -6 5 -3 10 3 6 1 10 -4 10 -6 0 -10 3 -9 8 3 15 -15 42 -25 35 -6 -3 -7
-1 -3 5 4 7 2 12 -3 12 -6 0 -10 3 -9 8 2 4 -3 22 -11 40 -10 23 -16 29 -22
20 -5 -7 -3 -16 4 -21 9 -6 8 -7 -2 -5 -19 5 -22 35 -4 42 8 3 11 10 8 16 -4
6 1 7 10 3 13 -5 14 -7 3 -14 -11 -8 -5 -13 14 -11 3 1 12 -6 20 -16 12 -16
11 -16 -7 -2 -18 14 -19 13 -8 -1 7 -9 9 -20 5 -25 -4 -4 0 -3 10 4 10 8 19 9
22 3 3 -5 3 -11 -1 -14 -5 -2 -2 -2 5 0 8 1 12 -3 9 -9 -2 -7 -9 -12 -15 -11
-5 1 -8 -7 -5 -17 3 -11 10 -20 15 -20 5 0 7 4 4 8 -2 4 -1 14 4 22 6 10 14 5
30 -23 12 -20 25 -37 29 -37 4 0 7 -8 7 -17 1 -26 25 -115 36 -137 5 -10 5
-16 0 -12 -9 5 -9 3 -12 -44 -3 -48 -11 -71 -21 -65 -6 5 -6 12 2 21 8 10 9
18 2 25 -10 10 -10 7 -15 -39 -2 -20 -38 -28 -38 -9 0 7 4 29 9 50 5 20 5 37
1 37 -4 0 -10 -17 -13 -38 -4 -21 -14 -46 -23 -57 -8 -11 -13 -14 -9 -7 12 23
-7 37 -23 16 -13 -18 -14 -18 -7 6 l8 25 -23 -20 c-16 -14 -24 -16 -27 -7 -3
6 -9 10 -13 7 -5 -3 2 18 15 47 30 66 46 136 34 144 -5 3 -9 2 -8 -3 5 -28 -2
-63 -12 -57 -6 4 -8 20 -4 40 4 22 2 34 -5 34 -6 0 -9 -4 -5 -9 3 -5 0 -13 -6
-16 -5 -4 -8 -13 -5 -21 3 -8 2 -13 -3 -11 -9 2 -101 -97 -101 -109 0 -5 5 -1
11 9 5 9 15 17 21 17 6 0 5 -7 -3 -17 -13 -15 -12 -15 9 -2 12 8 18 15 12 17
-15 5 -12 22 3 20 6 -2 11 3 9 10 -1 6 2 12 7 12 5 0 13 9 16 20 5 16 10 18
26 10 10 -6 19 -15 19 -20 0 -24 -43 -100 -57 -100 -9 0 -11 5 -7 13 6 9 4 9
-8 -1 -8 -7 -22 -10 -31 -6 -8 3 -18 1 -22 -5 -3 -6 -17 -11 -30 -11 -13 0
-31 -7 -39 -16 -9 -8 -16 -11 -16 -6 0 5 -7 9 -16 8 -9 0 -18 6 -19 15 -3 19
27 19 33 1 4 -14 22 -6 22 9 0 6 -4 7 -10 4 -5 -3 -10 -1 -10 4 0 6 5 11 10
11 6 0 10 5 10 11 0 5 -6 7 -12 3 -9 -6 -9 -3 0 9 8 9 11 20 8 26 -9 13 19 21
35 9 11 -8 10 -9 -4 -4 -11 3 -16 2 -12 -4 9 -14 20 -12 42 8 10 9 14 14 9 10
-23 -18 -27 -6 -6 17 13 14 20 25 15 25 -5 0 1 9 12 20 12 10 24 29 28 40 4
11 10 18 14 16 4 -3 7 5 8 17 0 12 -1 16 -4 9 -3 -6 -9 -10 -14 -6 -5 3 -9 2
-8 -3 4 -20 -3 -35 -32 -67 -16 -19 -30 -39 -31 -43 0 -4 -4 -7 -10 -5 -5 1
-6 -3 -2 -9 4 -8 3 -9 -4 -5 -15 9 -16 43 -2 49 6 3 5 4 -2 3 -6 -1 -16 -11
-22 -22 -17 -31 -46 -46 -46 -24 0 6 6 10 13 10 8 0 12 13 11 37 -1 21 4 44
10 52 9 12 8 14 -5 9 -12 -5 -15 -1 -13 18 1 15 -6 33 -19 45 -21 19 -21 20
-2 14 19 -6 19 -6 3 8 -10 8 -16 16 -13 18 7 8 -68 101 -95 118 -23 14 -24 14
-12 0 10 -13 9 -19 -3 -29 -9 -7 -18 -10 -22 -6 -3 3 -1 6 7 6 9 0 10 3 1 14
-6 8 -10 19 -9 26 2 7 -14 21 -35 32 -29 16 -35 23 -25 30 10 8 9 9 -3 5 -9
-3 -22 0 -29 6 -9 8 -11 9 -7 1 10 -17 -19 -39 -29 -23 -4 8 -3 9 4 5 7 -4 12
-3 12 3 0 6 -22 9 -55 7 -30 -2 -52 1 -49 5 3 5 1 9 -5 9 -5 0 -12 -6 -14 -12
-4 -8 -6 -7 -6 4 -1 9 -7 19 -13 22 -7 3 0 4 15 1 17 -4 26 -2 23 4 -8 12 73
25 109 19 14 -3 25 -1 25 5 0 5 8 3 17 -4 11 -10 14 -10 9 -1 -4 7 -1 12 9 12
9 0 14 -3 12 -7 -3 -5 19 -6 49 -5 47 3 54 1 55 -15 0 -10 3 -13 6 -5 2 6 14
12 24 12 13 0 18 -4 13 -12 -5 -10 -4 -10 6 -1 20 18 12 22 -74 34 -140 19
-358 -18 -452 -78 -18 -12 -22 -12 -27 1 -4 11 -1 13 10 9 11 -4 14 -2 9 5 -4
8 -2 10 7 6 8 -3 22 2 31 11 9 9 16 13 16 9 0 -3 6 -1 13 5 8 6 17 8 20 4 4
-3 7 0 7 7 0 7 3 11 6 7 4 -3 19 0 35 9 16 8 29 12 29 8 0 -4 6 -2 13 3 6 6
19 11 27 11 8 0 44 5 80 9 69 9 151 9 213 -1z m-333 -85 c0 -4 -6 -8 -13 -8
-8 0 -14 6 -14 13 0 7 6 10 14 7 7 -3 13 -8 13 -12z m625 9 c3 -5 1 -10 -4
-10 -6 0 -11 5 -11 10 0 6 2 10 4 10 3 0 8 -4 11 -10z m28 -15 c-3 -8 -13 -15
-22 -15 -14 1 -14 2 1 14 10 7 14 17 10 21 -4 5 -2 5 5 1 7 -4 10 -13 6 -21z
m-718 5 c-3 -5 -12 -10 -18 -10 -7 0 -6 4 3 10 19 12 23 12 15 0z m1379 -16
c3 -8 2 -12 -4 -9 -6 3 -10 10 -10 16 0 14 7 11 14 -7z m-1098 -36 c2 1 12 -1
20 -6 12 -6 13 -11 5 -16 -6 -4 -14 0 -17 8 -3 9 -10 13 -15 10 -5 -3 -6 -10
-3 -16 4 -7 2 -8 -5 -4 -6 4 -8 12 -5 18 5 7 1 9 -9 5 -12 -4 -14 -2 -10 10 4
11 2 14 -5 9 -8 -4 -12 -1 -12 10 0 15 4 14 26 -7 14 -13 28 -23 30 -21z
m-406 26 c0 -8 -19 -13 -24 -6 -3 5 1 9 9 9 8 0 15 -2 15 -3z m890 -9 c19 -22
8 -25 -12 -3 -10 10 -14 18 -9 18 5 0 14 -7 21 -15z m503 -9 c-4 -17 -3 -18 6
-6 8 12 10 10 8 -9 l-1 -23 -18 22 c-22 27 -23 37 -4 37 8 0 12 -8 9 -21z
m-433 -181 c27 -57 37 -110 18 -98 -5 2 -6 14 -2 25 4 14 3 18 -6 13 -7 -4
-11 -1 -9 6 3 27 -1 40 -11 34 -6 -4 -7 1 -3 11 5 13 3 15 -8 9 -8 -4 -11 -5
-7 0 5 5 -1 15 -12 22 -11 8 -18 19 -14 24 3 5 -8 22 -25 38 -17 16 -31 34
-31 40 0 6 -9 15 -20 21 -11 6 -17 16 -14 22 11 18 110 -99 144 -167z m255
132 c-1 -18 -5 -39 -10 -47 -5 -8 -10 -27 -11 -42 -1 -15 -8 -35 -14 -45 -10
-16 -10 -15 -5 7 4 14 8 42 8 62 1 21 6 38 10 38 5 0 7 15 4 34 -3 24 -1 33 7
30 6 -2 11 -19 11 -37z m318 -1 c-3 -4 -9 -2 -14 5 -13 22 -11 31 5 17 8 -7
12 -17 9 -22z m320 19 c-3 -9 -8 -14 -10 -11 -3 3 -2 9 2 15 9 16 15 13 8 -4z
m-1648 -5 c-3 -5 -12 -7 -20 -3 -21 7 -19 13 6 13 11 0 18 -4 14 -10z m1034 3
c-1 -5 -1 -19 1 -33 1 -22 2 -23 9 -6 7 19 8 18 15 -5 5 -13 8 -27 7 -31 -1
-5 3 -8 8 -8 8 0 12 -11 26 -62 2 -5 4 -10 5 -13 1 -3 4 -9 5 -15 1 -5 3 -12
4 -15 0 -3 2 -8 2 -12 1 -5 6 -19 11 -33 18 -46 24 -242 9 -296 -7 -28 -8 -27
-15 19 -4 26 -11 47 -15 47 -4 0 -18 23 -31 51 -15 32 -35 56 -53 66 -16 8
-26 10 -23 5 9 -14 -20 -22 -33 -9 -8 8 -11 8 -11 0 0 -6 7 -14 16 -17 16 -6
11 -26 -7 -26 -6 0 -8 4 -5 8 3 5 -1 9 -9 9 -10 0 -11 -5 -5 -18 7 -11 6 -19
-1 -21 -12 -4 -20 -58 -8 -58 5 0 9 7 9 16 0 24 20 55 31 48 6 -4 4 -15 -5
-30 -9 -13 -16 -27 -16 -31 0 -4 9 5 19 21 24 37 43 47 61 36 12 -8 9 -10 -10
-10 -20 0 -22 -2 -10 -10 13 -8 13 -11 1 -22 -11 -11 -13 -11 -6 1 5 10 4 12
-4 7 -6 -4 -9 -11 -6 -16 3 -5 -1 -22 -10 -37 l-15 -28 6 26 c5 25 3 26 -30
25 -33 -1 -41 -7 -37 -29 1 -5 -3 -6 -8 -3 -11 7 -8 35 5 44 5 4 11 18 12 32
2 24 8 60 12 70 1 3 2 8 1 13 0 4 3 7 7 7 4 0 9 12 10 26 1 14 9 32 17 41 12
11 13 19 5 28 -8 10 -7 14 2 18 10 3 11 8 1 26 -18 29 -16 39 3 15 15 -19 15
-18 9 3 -4 15 0 25 13 32 19 10 32 6 32 -11 0 -5 -9 -6 -20 -3 -11 4 -20 2
-20 -4 0 -6 13 -11 30 -11 l30 0 -17 36 c-16 32 -18 34 -30 18 -7 -10 -13 -14
-13 -9 0 5 8 17 18 28 9 11 11 17 5 13 -7 -4 -13 -2 -13 3 0 15 27 14 33 -1 3
-7 6 -2 6 11 1 16 -3 21 -13 18 -11 -4 -13 3 -11 31 4 44 4 42 10 42 3 0 4 -3
4 -7z m-254 -13 c3 -5 1 -10 -4 -10 -6 0 -11 5 -11 10 0 6 2 10 4 10 3 0 8 -4
11 -10z m517 -5 c2 3 5 -2 5 -10 0 -19 0 -19 -23 7 -12 14 -13 18 -3 10 9 -6
18 -10 21 -7z m211 -48 c5 3 7 1 4 -4 -4 -6 -2 -25 4 -42 14 -41 7 -48 -20
-20 -14 15 -18 26 -11 33 6 6 3 14 -8 23 -9 8 -11 12 -4 8 14 -7 16 4 2 25 -8
12 -10 12 -10 1 0 -8 -2 -12 -5 -10 -2 3 -1 15 2 28 6 22 7 22 21 -13 8 -20
19 -33 25 -29z m-1203 28 c6 -8 8 -20 4 -26 -4 -7 -3 -9 3 -6 6 4 16 0 23 -8
11 -13 10 -18 -6 -30 -10 -8 -23 -15 -28 -15 -6 0 -2 6 8 13 16 12 16 14 2 26
-9 8 -16 20 -16 27 0 8 -4 14 -10 14 -5 0 -10 5 -10 10 0 15 16 12 30 -5z
m920 0 c0 -8 -2 -15 -4 -15 -2 0 -6 7 -10 15 -3 8 -1 15 4 15 6 0 10 -7 10
-15z m116 -14 c0 -11 -4 -17 -8 -15 -4 3 -8 12 -8 20 0 8 4 14 8 14 4 0 8 -9
8 -19z m-811 -1 c3 -5 1 -10 -4 -10 -6 0 -11 5 -11 10 0 6 2 10 4 10 3 0 8 -4
11 -10z m1150 0 c3 -5 -1 -10 -10 -10 -9 0 -13 5 -10 10 3 6 8 10 10 10 2 0 7
-4 10 -10z m-1400 -10 c3 -5 1 -10 -4 -10 -6 0 -11 5 -11 10 0 6 2 10 4 10 3
0 8 -4 11 -10z m963 -31 c-3 -8 -7 -3 -11 10 -4 17 -3 21 5 13 5 -5 8 -16 6
-23z m79 6 c0 -8 -4 -12 -9 -9 -5 3 -6 10 -3 15 9 13 12 11 12 -6z m20 -17
c-3 -8 -6 -5 -6 6 -1 11 2 17 5 13 3 -3 4 -12 1 -19z m-389 -37 c2 -22 -2 -43
-9 -47 -8 -5 -9 -3 -4 6 5 9 4 11 -4 6 -8 -5 -8 -12 2 -26 15 -21 11 -80 -5
-80 -5 0 -7 -4 -3 -9 3 -5 0 -13 -6 -17 -9 -5 -10 2 -6 24 5 26 4 30 -10 25
-11 -4 -14 -3 -9 5 4 7 1 12 -7 12 -8 0 -18 8 -22 18 -5 14 -4 15 6 5 18 -18
26 -16 32 7 3 11 1 20 -5 20 -5 0 -6 5 -2 12 4 7 3 8 -4 4 -6 -4 -10 -12 -8
-19 1 -7 1 -9 -1 -4 -3 4 -10 4 -16 0 -17 -10 22 48 49 73 13 12 20 25 16 30
-4 4 -2 5 4 1 5 -3 11 -24 12 -46z m-603 19 c-3 -5 -1 -10 4 -10 6 0 10 -3 10
-7 -1 -5 0 -24 1 -43 2 -32 3 -33 9 -10 6 18 8 10 9 -33 1 -43 -2 -56 -11 -50
-7 4 -5 -1 3 -11 12 -16 12 -20 -1 -30 -8 -6 -13 -19 -11 -28 2 -9 -4 -28 -14
-42 -9 -14 -12 -26 -8 -26 5 0 -4 -12 -19 -26 -15 -14 -24 -30 -21 -36 4 -7 2
-8 -4 -4 -7 4 -12 4 -12 -1 0 -4 -10 -19 -21 -33 -19 -23 -19 -23 -9 -2 6 12
8 28 4 34 -4 6 -3 8 4 4 6 -4 16 8 23 29 7 19 17 35 22 35 4 0 5 -5 1 -12 -4
-6 -3 -8 3 -5 6 4 8 17 6 30 -3 15 2 28 14 38 16 13 17 13 4 -3 -8 -11 -9 -18
-3 -18 18 0 24 20 12 35 -9 11 -9 23 -1 46 6 17 8 36 4 42 -3 6 -1 7 5 3 7 -4
12 -5 12 -2 0 2 3 13 6 23 5 15 4 15 -5 3 -9 -13 -11 -12 -12 5 -1 20 -3 35
-13 88 -3 15 -1 27 5 27 6 0 7 -4 4 -10z m500 -10 c3 -6 -1 -7 -9 -4 -18 7
-21 14 -7 14 6 0 13 -4 16 -10z m879 -42 c-3 -21 0 -27 9 -22 8 5 7 2 -2 -9
-10 -12 -10 -17 -2 -17 8 0 10 -8 6 -19 -3 -11 -2 -22 3 -25 5 -3 8 -20 7 -38
-2 -18 0 -37 3 -43 9 -15 9 -274 -1 -268 -4 2 -5 8 -2 13 3 5 1 11 -4 15 -6 3
-8 -4 -5 -17 11 -48 11 -69 1 -75 -6 -3 -7 -2 -4 3 3 6 2 16 -4 24 -7 12 -9
10 -9 -7 0 -12 4 -25 10 -28 12 -7 9 -75 -4 -75 -4 0 -6 -9 -3 -20 3 -11 1
-20 -5 -20 -6 0 -8 -7 -4 -15 8 -22 -30 -137 -79 -240 -151 -315 -420 -547
-742 -640 -46 -14 -87 -24 -91 -24 -4 1 -9 0 -12 -1 -34 -13 -217 -19 -290
-10 -30 4 -47 8 -37 9 9 0 17 5 17 9 0 4 -27 7 -60 7 -33 0 -60 3 -60 8 0 4
-8 7 -17 6 -31 -4 -73 13 -73 28 0 9 6 13 13 10 8 -3 14 0 14 6 0 7 -15 12
-33 13 -28 0 -30 -1 -17 -11 32 -23 -4 -23 -62 0 -66 27 -82 44 -59 61 15 12
54 8 54 -5 0 -4 10 -7 22 -8 11 -1 25 -8 29 -15 5 -7 9 -9 9 -4 0 5 6 3 13 -3
8 -6 16 -8 20 -5 3 3 15 3 27 -1 15 -5 19 -12 15 -23 -5 -14 -4 -15 6 -4 18
17 29 15 29 -5 0 -11 3 -14 8 -7 8 12 58 12 69 -1 5 -4 2 -5 -6 0 -10 6 -12 4
-7 -4 5 -8 12 -9 19 -3 7 5 21 6 32 1 11 -4 14 -8 6 -8 -8 -1 -11 -4 -8 -7 4
-4 14 -1 24 7 11 9 14 10 9 2 -4 -7 -2 -13 3 -13 6 0 11 3 11 8 0 4 11 7 24 7
13 0 22 -3 19 -7 -2 -5 3 -8 11 -8 9 0 16 6 16 13 0 7 7 4 15 -7 12 -16 12
-22 2 -28 -8 -5 -7 -8 6 -8 14 0 17 5 12 22 -6 17 -4 20 9 15 9 -4 16 -1 17 6
0 9 2 9 6 0 2 -7 17 -13 31 -12 l27 1 -25 8 c-21 6 -18 7 17 8 32 0 40 -4 36
-15 -5 -12 -7 -12 -14 -1 -7 10 -9 9 -9 -4 0 -26 19 -22 32 8 9 20 17 24 35
19 15 -3 23 -1 23 7 0 9 3 8 10 -2 5 -8 10 -10 10 -3 0 6 9 9 22 5 14 -3 19
-1 14 6 -4 8 3 8 26 1 18 -5 34 -9 35 -9 2 0 3 9 3 21 0 11 5 17 10 14 6 -4 8
-10 5 -15 -9 -14 68 15 148 57 159 82 270 172 385 311 54 65 59 76 42 87 -8 5
-7 12 2 23 11 13 11 14 -1 7 -11 -6 -13 -4 -8 9 4 11 3 15 -4 11 -6 -4 -8 -13
-5 -20 5 -14 -37 -59 -46 -49 -3 3 -9 1 -13 -5 -3 -6 1 -11 9 -11 8 0 18 5 21
10 4 6 11 7 17 4 6 -4 8 -2 4 4 -3 6 -2 13 4 17 5 3 10 0 10 -8 0 -16 -174
-190 -240 -240 -151 -114 -345 -197 -500 -214 -30 -3 -57 -7 -59 -9 -2 -2 -11
2 -19 9 -13 10 -14 9 -8 -2 7 -11 -9 -12 -95 -7 -57 3 -112 6 -121 7 -9 0 -19
6 -22 14 -3 9 -17 12 -39 10 -19 -1 -41 1 -48 6 -9 5 6 7 39 5 32 -1 57 -8 63
-17 5 -8 9 -9 9 -2 0 7 15 10 41 8 23 -2 51 0 63 5 13 6 16 9 6 10 -41 4 -66
12 -84 28 -11 9 -16 11 -12 5 9 -15 4 -16 -26 -4 -39 16 -62 24 -77 27 -8 1
-17 6 -20 11 -3 4 -15 10 -26 11 -11 2 -24 8 -30 14 -7 8 -6 8 4 3 10 -6 12
-4 7 4 -4 6 -16 9 -25 6 -10 -3 -24 1 -31 10 -7 8 -18 15 -25 15 -21 0 -27 31
-10 50 9 10 13 24 9 35 -5 12 -4 16 3 12 6 -4 16 0 23 8 9 10 9 15 1 15 -6 0
-11 5 -11 11 0 5 5 7 12 3 7 -5 8 -3 3 6 -6 10 -11 10 -20 -4 -11 -15 -13 -15
-19 -1 -3 8 -9 14 -13 13 -26 -9 -3 50 31 82 22 20 26 21 20 6 -5 -12 -4 -17
3 -13 11 7 10 -34 -1 -52 -4 -5 -1 -13 5 -17 8 -4 9 -3 5 4 -4 7 -2 12 4 12 6
0 8 5 5 10 -3 6 -1 10 5 10 6 0 8 5 4 12 -4 7 -3 8 5 4 6 -4 9 -12 6 -17 -4
-5 0 -9 8 -9 15 0 32 -27 28 -45 -2 -6 2 -6 8 0 8 8 34 0 88 -26 43 -21 94
-40 113 -43 l35 -7 -37 21 c-44 24 -47 29 -15 25 37 -4 52 -9 59 -20 5 -6 8
-6 8 1 0 6 7 11 15 11 11 0 12 -4 3 -14 -8 -11 -7 -12 6 -7 9 3 38 1 64 -6 70
-17 121 -22 102 -10 -10 7 2 8 40 4 30 -4 53 -4 49 0 -3 3 -19 6 -37 8 -18 1
-32 5 -32 8 0 3 -12 5 -27 4 -39 -3 -40 -3 -23 -14 18 -12 2 -12 -25 0 -16 7
-17 9 -3 9 9 1 18 5 20 10 2 5 35 11 73 15 62 5 119 13 150 21 6 1 24 8 40 14
17 7 40 14 52 14 11 1 19 5 16 10 -2 4 8 7 24 5 26 -2 73 16 73 28 0 3 -4 2
-10 -1 -5 -3 -10 -4 -10 -1 0 3 9 10 20 16 16 9 19 8 13 -6 -5 -14 -3 -15 18
-3 13 7 28 12 32 11 5 -1 5 2 2 8 -4 6 -14 9 -24 5 -9 -3 -2 6 14 19 36 30 57
35 24 5 -17 -14 -19 -19 -7 -15 10 3 20 1 23 -4 4 -6 1 -10 -4 -10 -6 0 -10
-6 -8 -13 1 -6 -3 -11 -10 -10 -7 2 -17 -7 -23 -20 -9 -19 -9 -20 2 -6 7 9 21
15 31 13 9 -1 15 2 12 7 -5 8 8 23 49 57 9 7 21 10 28 6 6 -4 8 -3 5 3 -4 6
18 32 48 58 30 26 55 54 55 62 0 8 -5 11 -10 8 -6 -4 -7 -11 -4 -17 4 -7 2 -8
-5 -4 -14 9 -43 -12 -36 -25 3 -4 -4 -6 -16 -4 -13 3 -30 -1 -38 -8 -14 -11
-14 -10 -2 6 7 9 20 17 28 17 8 0 11 5 7 12 -4 7 -3 8 5 4 7 -5 19 0 29 12 9
10 27 18 40 17 14 -1 27 6 33 17 6 10 13 16 18 14 4 -3 12 3 18 13 9 14 8 18
-3 18 -7 0 -11 -3 -9 -7 2 -4 -7 -13 -20 -20 -13 -7 -22 -18 -18 -23 4 -6 1
-7 -7 -2 -10 6 -8 12 8 26 12 9 22 22 22 28 0 6 5 11 11 11 5 0 7 5 4 10 -9
14 8 12 25 -3 12 -10 12 -9 2 4 -10 14 -10 20 3 33 9 9 13 16 8 16 -4 0 -3 4
3 8 17 10 98 186 122 262 25 79 41 175 43 255 1 33 7 66 13 74 8 11 8 13 0 8
-14 -8 -27 90 -18 131 4 21 3 24 -5 12 -14 -19 -14 0 -1 36 9 24 9 25 -5 14
-16 -13 -18 -10 -9 14 10 27 42 -2 38 -36z m-374 28 c0 -2 -7 -7 -16 -10 -8
-3 -12 -2 -9 4 6 10 25 14 25 6z m-1116 -18 c-3 -4 -11 -5 -19 -1 -21 7 -19
12 4 10 11 0 18 -5 15 -9z m1356 2 c0 -5 -2 -10 -4 -10 -3 0 -8 5 -11 10 -3 6
-1 10 4 10 6 0 11 -4 11 -10z m-230 -10 c0 -5 -4 -10 -10 -10 -5 0 -10 5 -10
10 0 6 5 10 10 10 6 0 10 -4 10 -10z m34 -25 c-3 -20 -1 -35 4 -35 6 0 9 -18
9 -40 -1 -22 -6 -40 -10 -40 -5 0 -6 -4 -3 -8 3 -5 -1 -9 -9 -9 -11 0 -12 4
-4 13 6 7 9 21 7 31 -1 10 2 24 6 32 7 11 5 13 -6 8 -14 -5 -15 -1 -8 24 10
32 10 35 10 49 0 6 2 10 5 10 3 0 2 -16 -1 -35z m-1143 -15 c-4 -3 -11 -15
-17 -28 -8 -21 -9 -19 -9 17 0 22 3 34 7 28 5 -8 8 -5 9 8 l0 20 8 -20 c5 -11
5 -22 2 -25z m-409 4 c-2 -16 1 -15 18 6 12 14 19 19 15 13 -3 -7 -2 -13 4
-13 5 0 8 -7 7 -17 -4 -26 -41 -26 -55 0 -11 20 -11 20 -7 -8 3 -16 3 -24 0
-17 -3 6 -10 9 -15 6 -6 -4 -6 -11 1 -19 10 -12 7 -12 -14 -2 -16 7 -20 13
-12 15 8 2 20 17 26 33 14 32 37 34 32 3z m1744 -2 c-17 -16 -18 -16 -5 5 7
12 15 20 18 17 3 -2 -3 -12 -13 -22z m-1855 11 c-10 -4 -10 -7 -1 -13 7 -5 2
-7 -14 -7 -24 0 -25 1 -9 13 10 7 23 13 28 13 6 0 4 -3 -4 -6z m1629 -20 c0
-14 -3 -23 -7 -19 -10 10 -11 46 -1 46 4 0 8 -12 8 -27z m-1560 6 c0 -5 -11
-9 -25 -9 -33 0 -33 15 0 16 14 1 25 -2 25 -7z m1045 -40 c-3 -4 -1 -19 5 -33
5 -14 6 -28 1 -30 -4 -3 -8 0 -8 7 0 7 -5 32 -11 57 -9 40 -9 43 3 26 8 -10
12 -22 10 -27z m-594 -6 c-12 -20 -14 -14 -5 12 4 9 9 14 11 11 3 -2 0 -13 -6
-23z m1378 -60 c-2 -92 -6 -82 -11 25 -2 34 0 62 5 62 4 0 6 -39 6 -87z
m-1695 69 c3 -5 -1 -9 -9 -9 -8 0 -12 4 -9 9 3 4 7 8 9 8 2 0 6 -4 9 -8z m236
4 c0 -3 -4 -8 -10 -11 -5 -3 -10 -1 -10 4 0 6 5 11 10 11 6 0 10 -2 10 -4z
m-290 -50 c0 -4 7 -3 15 4 8 7 15 9 15 5 0 -4 8 -1 17 6 14 12 14 10 -1 -13
-10 -16 -21 -28 -25 -28 -9 1 -34 22 -51 44 -14 18 -14 19 8 5 12 -8 22 -18
22 -23z m1015 16 c-3 -3 -11 0 -18 7 -9 10 -8 11 6 5 10 -3 15 -9 12 -12z
m692 -4 c-3 -8 -6 -5 -6 6 -1 11 2 17 5 13 3 -3 4 -12 1 -19z m-2042 2 c3 -6
-1 -7 -9 -4 -18 7 -21 14 -7 14 6 0 13 -4 16 -10z m704 -27 c-6 -7 -8 -17 -4
-23 3 -5 -1 -13 -9 -16 -9 -3 -13 -10 -10 -15 3 -5 -2 -9 -10 -9 -20 0 -11 50
11 68 10 7 12 12 5 12 -7 0 -12 5 -12 10 0 6 8 5 19 -2 15 -9 17 -16 10 -25z
m1528 -10 c-3 -10 -5 -4 -5 12 0 17 2 24 5 18 2 -7 2 -21 0 -30z m-2268 10
c-8 -10 -25 -29 -38 -43 l-24 -25 24 35 c21 32 38 49 48 50 2 0 -3 -8 -10 -17z
m1401 -19 c0 -8 -19 -13 -24 -6 -3 5 1 9 9 9 8 0 15 -2 15 -3z m334 -9 c3 -8
1 -15 -4 -15 -6 0 -10 7 -10 15 0 8 2 15 4 15 2 0 6 -7 10 -15z m76 -17 c0 7
5 10 11 6 7 -4 7 -9 2 -13 -6 -3 -9 -16 -8 -28 1 -13 -2 -23 -7 -23 -4 0 -8 9
-8 19 0 11 -3 28 -6 38 -5 15 -4 15 5 3 8 -11 11 -12 11 -2z m80 7 c0 -2 -6
-8 -13 -14 -10 -8 -14 -7 -14 2 0 8 6 14 14 14 7 0 13 -1 13 -2z m191 -22
c-12 -20 -14 -14 -5 12 4 9 9 14 11 11 3 -2 0 -13 -6 -23z m198 -13 c0 -10 -3
-8 -9 5 -12 27 -12 43 0 25 5 -8 9 -22 9 -30z m-740 -6 c9 -20 9 -24 -1 -17
-17 10 -30 11 -49 2 -21 -11 -32 0 -18 18 6 7 8 13 3 13 -5 0 -3 4 5 9 21 13
47 2 60 -25z m-1803 10 c-3 -9 -9 -27 -12 -40 -3 -13 -10 -24 -15 -24 -6 0 -5
9 1 20 6 11 8 20 4 20 -3 0 -1 6 5 13 6 8 8 17 4 20 -3 4 -1 7 6 7 8 0 11 -6
7 -16z m2156 4 c-8 -8 -8 -15 -1 -24 7 -8 7 -14 -1 -19 -5 -3 -13 1 -16 10 -6
13 -8 14 -15 3 -7 -10 -9 -10 -9 2 0 8 10 20 23 26 30 16 33 16 19 2z m-1183
-26 c-7 -10 -19 -19 -27 -19 -11 0 -9 6 8 19 12 10 24 18 26 18 2 0 -1 -8 -7
-18z m589 1 c-12 -15 -22 -18 -14 -4 4 5 0 11 -6 14 -7 3 -3 4 9 4 17 -1 19
-4 11 -14z m444 10 c-10 -4 -10 -8 -1 -19 9 -11 9 -14 -1 -14 -9 0 -9 -4 -2
-13 7 -8 7 -17 -2 -29 -10 -14 -12 -8 -10 30 2 56 1 52 17 51 9 0 9 -2 -1 -6z
m-62 -38 c0 -19 -2 -35 -4 -35 -2 0 -6 16 -8 35 -2 19 0 35 4 35 4 0 8 -16 8
-35z m403 10 c-7 -21 -13 -19 -13 6 0 11 4 18 10 14 5 -3 7 -12 3 -20z m-1439
0 c3 -9 0 -15 -8 -15 -7 0 -13 7 -13 15 0 8 4 15 8 15 4 0 9 -7 13 -15z m1633
-17 c-3 -7 -5 -2 -5 12 0 14 2 19 5 13 2 -7 2 -19 0 -25z m-1000 -20 c-3 -7
-5 -2 -5 12 0 14 2 19 5 13 2 -7 2 -19 0 -25z m-1147 5 c0 -15 -2 -16 -10 -3
-9 14 -14 7 -11 -13 1 -5 -3 -5 -9 -2 -13 8 -52 -24 -45 -36 6 -8 -12 -22 -33
-25 -20 -3 -22 -8 -27 -42 -2 -17 -8 -39 -14 -49 -14 -23 -14 -8 -1 18 8 13 7
19 0 19 -6 0 -13 -13 -16 -30 -4 -16 -10 -30 -14 -30 -4 0 -6 -13 -5 -30 1
-16 -2 -27 -7 -24 -5 3 -7 -6 -4 -20 3 -15 1 -24 -4 -21 -11 6 -20 -19 -20
-56 0 -26 7 -33 27 -26 4 1 9 21 11 45 1 23 8 55 14 70 6 15 11 30 10 35 -1 4
3 7 9 7 5 0 7 6 3 13 -4 6 5 1 18 -13 24 -23 25 -26 9 -44 -9 -11 -11 -17 -6
-14 6 4 10 -35 9 -109 -1 -99 1 -113 13 -97 7 10 13 22 13 28 0 5 6 1 14 -10
9 -12 11 -23 5 -30 -5 -6 -7 -13 -4 -16 3 -2 -2 -5 -10 -5 -8 0 -11 5 -8 10 3
6 2 7 -4 4 -8 -5 -9 -27 -4 -56 1 -3 7 4 15 15 8 10 18 16 22 11 4 -4 2 -7 -4
-7 -7 0 -12 -6 -12 -14 0 -8 -6 -16 -12 -19 -10 -3 -10 -7 -1 -19 7 -8 11 -24
8 -36 -3 -16 0 -19 13 -15 14 6 15 4 4 -9 -10 -13 -10 -17 4 -22 13 -5 15 -9
6 -18 -7 -7 -12 -17 -12 -22 0 -6 4 -5 8 2 6 8 18 -12 37 -60 16 -40 39 -90
52 -110 13 -21 21 -38 17 -38 -19 0 -147 162 -147 187 0 7 -3 10 -7 8 -8 -5
-56 115 -66 163 -5 31 -7 32 -20 15 -18 -24 -18 -38 1 -23 12 10 15 9 15 -4 0
-10 -4 -14 -10 -11 -5 3 -10 2 -10 -3 0 -6 7 -13 15 -16 13 -5 14 -10 4 -27
-10 -19 -9 -21 7 -15 10 4 15 4 11 0 -4 -4 -1 -14 6 -22 8 -11 8 -14 0 -9 -6
4 -13 2 -15 -5 -2 -6 -10 3 -18 21 -11 28 -11 34 1 42 11 7 11 9 -2 9 -22 0
-34 47 -17 68 10 12 10 14 0 8 -16 -10 -28 22 -13 37 13 13 15 31 3 23 -4 -2
-6 11 -4 31 4 27 1 34 -8 28 -9 -5 -11 -4 -6 3 5 9 13 9 26 2 24 -13 30 -13
30 0 0 6 -9 10 -20 10 -11 0 -20 5 -20 11 0 5 -4 8 -8 5 -11 -6 1 81 21 154
27 101 77 173 107 155 6 -3 7 1 4 9 -3 9 -11 13 -18 9 -6 -3 -2 3 9 14 13 14
22 16 27 9 7 -11 12 -1 9 17 -1 5 3 6 9 2 5 -3 10 -1 10 5 0 6 4 9 9 5 5 -3
12 -1 16 5 10 16 25 12 25 -7z m40 -19 c-1 -4 4 -10 12 -15 10 -6 10 -11 0
-21 -9 -9 -12 -9 -12 1 0 8 -8 20 -17 27 -17 13 -17 14 0 8 11 -4 16 -2 14 7
-2 8 -2 11 0 7 3 -4 4 -10 3 -14z m1365 6 c-10 -11 -21 -18 -23 -15 -3 3 3 12
14 20 27 20 30 18 9 -5z m536 -11 c-5 -13 -10 -19 -10 -12 -1 15 10 45 15 40
3 -2 0 -15 -5 -28z m-1441 5 c0 -17 -14 -18 -28 -1 -8 10 -6 13 9 14 10 1 19
-5 19 -13z m205 6 c-3 -5 -12 -10 -18 -10 -7 0 -6 4 3 10 19 12 23 12 15 0z
m155 -7 c0 -2 -7 -11 -15 -19 -21 -22 -19 -33 7 -26 18 4 17 0 -13 -31 -19
-20 -35 -32 -37 -27 -2 6 4 18 14 27 11 12 13 18 5 21 -9 3 -8 11 4 28 9 14
13 29 10 34 -3 6 1 7 9 4 9 -3 16 -8 16 -11z m-633 -8 c0 -8 -4 -12 -9 -9 -5
3 -6 10 -3 15 9 13 12 11 12 -6z m586 -16 c-5 -19 -17 -27 -70 -43 -20 -6 -21
-5 -10 18 11 24 65 58 79 50 3 -2 4 -13 1 -25z m906 24 c-8 -2 -20 -16 -27
-31 l-11 -27 2 25 c2 28 14 40 37 39 13 -1 12 -2 -1 -6z m-172 -25 c-3 -8 -6
-5 -6 6 -1 11 2 17 5 13 3 -3 4 -12 1 -19z m-1521 -13 c8 -10 12 -28 9 -39 -5
-17 -3 -16 9 4 11 18 15 20 16 8 0 -9 -7 -24 -16 -32 -17 -18 -28 -21 -19 -6
3 6 1 10 -5 10 -6 0 -8 5 -5 10 3 6 0 10 -7 10 -9 0 -9 3 2 10 13 8 12 11 -5
24 -12 9 -22 11 -26 4 -4 -6 -8 -4 -12 5 -8 21 42 15 59 -8z m254 13 c0 -4 -4
-8 -9 -8 -6 0 -12 4 -15 8 -3 5 1 9 9 9 8 0 15 -4 15 -9z m616 -24 c-6 -15 -4
-15 10 -3 16 13 16 12 7 -6 -18 -32 -123 -136 -133 -130 -5 3 -12 0 -16 -6 -4
-8 -3 -9 4 -5 7 4 12 2 12 -3 0 -13 -17 -15 -24 -3 -2 4 -1 14 3 20 9 15 135
151 140 152 2 0 0 -7 -3 -16z m-639 -9 c0 -8 -4 -12 -9 -9 -5 3 -6 10 -3 15 9
13 12 11 12 -6z m1130 2 c0 -8 -6 -14 -14 -14 -9 0 -10 4 -2 14 6 7 12 13 14
13 1 0 2 -6 2 -13z m-380 -3 c-3 -3 -12 -4 -19 -1 -8 3 -5 6 6 6 11 1 17 -2
13 -5z m-207 -10 c0 -8 -19 -13 -24 -6 -3 5 1 9 9 9 8 0 15 -2 15 -3z m230 -4
c0 -5 -5 -10 -11 -10 -5 0 -7 5 -4 10 3 6 8 10 11 10 2 0 4 -4 4 -10z m-1135
-9 c3 -5 2 -12 -3 -15 -5 -3 -9 1 -9 9 0 17 3 19 12 6z m516 -19 c-8 -3 -9 -8
-2 -16 8 -9 7 -13 -4 -13 -8 0 -12 4 -9 9 3 4 0 8 -5 8 -6 0 -3 8 7 18 9 10
19 13 21 8 2 -6 -1 -12 -8 -14z m352 21 c4 -3 -7 -15 -24 -25 -17 -11 -29 -22
-25 -25 3 -3 12 0 20 6 8 7 20 10 26 6 5 -3 13 1 16 10 5 13 8 14 15 3 5 -8
-1 -22 -17 -39 -22 -23 -29 -25 -49 -15 -13 6 -21 15 -18 20 4 5 -2 6 -13 2
-18 -7 -18 -6 1 13 11 11 26 27 33 36 14 16 25 19 35 8z m211 -36 c-11 -7 -12
-12 -4 -22 9 -10 9 -19 0 -32 -10 -16 -10 -15 -5 5 6 21 -8 31 -19 14 -5 -9
-17 -58 -18 -79 -1 -6 -7 -9 -14 -6 -7 2 -22 0 -33 -6 -29 -16 -34 2 -10 33
12 15 18 30 15 34 -4 3 -11 0 -15 -7 -5 -8 -11 -9 -15 -3 -9 15 25 24 41 11
10 -9 17 -9 24 -2 8 8 7 13 -2 18 -8 5 -10 4 -5 -3 4 -7 2 -12 -3 -12 -22 0
-10 19 25 39 20 12 34 25 31 28 -4 3 -13 0 -22 -7 -8 -7 -15 -8 -15 -3 0 5 -7
10 -16 10 -14 0 -14 -2 2 -15 13 -10 14 -13 3 -9 -8 3 -26 -4 -40 -14 -44 -34
-44 -20 0 25 l42 43 35 -16 c27 -12 31 -17 18 -24z m-310 17 c3 -8 2 -12 -4
-9 -6 3 -10 1 -10 -4 0 -6 -5 -11 -10 -11 -6 0 -5 8 2 20 15 24 14 24 22 4z
m972 -20 c-5 -18 -3 -24 5 -18 8 4 9 3 5 -4 -4 -7 -2 -12 3 -12 16 0 9 -22
-14 -42 -11 -10 -15 -17 -8 -18 7 0 10 -7 6 -17 -4 -10 -2 -14 4 -10 15 9 34
-16 24 -32 -6 -9 -14 -4 -31 19 -22 31 -22 33 -6 61 10 16 12 29 7 29 -6 0
-11 -5 -11 -12 0 -6 -3 -8 -6 -5 -4 4 -2 13 4 20 7 8 9 16 6 20 -7 6 4 47 13
47 3 0 2 -12 -1 -26z m69 17 c-3 -5 -1 -12 5 -16 5 -3 10 -12 10 -18 0 -7 -7
-3 -15 7 -13 17 -12 36 1 36 3 0 3 -4 -1 -9z m-1728 -43 c3 -18 9 -25 13 -18
14 23 17 -14 3 -40 -11 -21 -13 -21 -11 -5 1 11 -3 30 -10 41 -6 12 -9 24 -6
27 3 3 1 7 -4 11 -5 3 -7 -17 -4 -44 3 -36 0 -50 -9 -50 -7 0 -9 -3 -6 -7 4
-3 1 -13 -6 -21 -9 -13 -9 -14 0 -8 9 5 11 2 7 -8 -5 -14 -33 -12 -35 3 0 3
-2 13 -4 23 -2 9 5 18 17 21 11 3 17 10 14 15 -3 6 0 12 6 15 7 2 10 8 6 12
-10 10 -40 -14 -32 -26 3 -5 0 -9 -5 -9 -14 0 -14 6 0 32 8 15 8 19 0 14 -6
-4 -11 -2 -11 3 0 6 -5 11 -12 11 -9 0 -9 -3 0 -12 15 -15 16 -31 0 -26 -20 7
-17 41 5 57 12 9 25 16 29 16 3 0 9 3 13 7 14 13 36 -5 42 -34z m1068 23 c-3
-6 -11 -11 -16 -11 -5 0 -4 6 3 14 14 16 24 13 13 -3z m-1005 -24 c-10 -9 -11
-9 -6 1 4 7 2 12 -6 12 -9 0 -9 3 2 10 19 12 27 -7 10 -23z m1244 17 c3 -8 2
-12 -4 -9 -6 3 -10 2 -10 -4 0 -6 -10 -16 -22 -22 l-23 -11 23 21 c12 12 22
26 22 31 0 15 7 12 14 -6z m-913 -27 c-10 -9 -11 -8 -5 6 3 10 9 15 12 12 3
-3 0 -11 -7 -18z m639 -8 c-6 -10 -13 -19 -16 -19 -2 0 0 8 5 19 6 10 7 22 3
26 -4 5 -1 5 6 1 9 -5 9 -12 2 -27z m-812 -11 c-3 -45 2 -91 8 -85 4 4 23 -20
42 -53 20 -33 38 -58 41 -55 2 3 -1 11 -7 17 -19 19 -14 37 8 33 11 -2 20 1
20 7 0 6 -13 8 -32 5 -33 -5 -33 -5 -6 6 25 10 45 40 40 59 -1 3 5 11 12 17
11 9 14 8 12 -5 0 -9 5 -19 13 -22 9 -3 11 0 6 8 -5 9 -4 11 3 6 7 -4 12 -2
12 5 0 7 3 10 6 6 7 -7 -38 -107 -49 -107 -5 0 -5 -4 -2 -10 3 -5 -1 -10 -9
-10 -17 0 -22 -15 -7 -24 5 -3 12 1 15 10 5 13 9 14 20 5 12 -10 14 -7 11 14
-2 19 2 25 11 21 8 -3 14 -1 14 4 0 6 -5 10 -11 10 -8 0 -9 4 0 13 6 8 7 18 3
22 -4 5 -1 5 5 1 9 -5 11 -2 7 8 -3 9 -1 16 6 16 6 0 8 5 5 10 -3 6 -1 10 4
10 14 0 14 -17 1 -25 -6 -4 -8 -10 -5 -14 2 -5 0 -23 -6 -42 -6 -19 -12 -44
-15 -55 -2 -12 -12 -39 -21 -60 -9 -22 -16 -49 -16 -61 0 -12 -4 -20 -9 -16
-6 3 -8 -6 -6 -23 3 -16 3 -23 1 -16 -3 6 -9 12 -14 12 -6 0 -9 -6 -8 -12 3
-27 -1 -39 -12 -32 -8 4 -8 0 0 -15 7 -11 8 -21 4 -21 -4 0 -2 -5 4 -11 19
-19 35 -1 22 24 -7 12 -8 19 -5 15 9 -7 40 21 48 44 4 9 17 14 37 13 16 -1 28
2 24 8 -3 5 -14 7 -24 4 -10 -3 -22 0 -27 7 -11 13 -4 70 9 74 5 2 7 7 5 11
-3 4 -1 13 5 21 6 11 9 8 9 -12 0 -16 -4 -28 -10 -28 -5 0 -7 -7 -3 -17 5 -13
8 -12 15 8 8 22 10 22 19 6 6 -9 15 -15 21 -11 7 4 6 0 -1 -14 -6 -11 -9 -34
-6 -51 2 -17 0 -29 -5 -26 -4 3 -10 -4 -13 -15 -3 -11 -11 -19 -19 -18 -7 2
-12 -2 -11 -9 2 -6 -6 -11 -16 -10 -12 1 -17 6 -13 16 3 9 1 12 -6 7 -7 -4
-12 -15 -12 -25 0 -9 -5 -22 -11 -28 -8 -8 -8 -17 0 -32 8 -14 8 -21 1 -21
-13 0 -13 -37 1 -45 6 -4 10 -1 8 6 -4 33 1 42 15 30 10 -8 16 -9 21 -1 4 6 1
9 -7 8 -8 -2 -14 8 -16 25 -2 17 1 27 10 27 7 0 22 10 33 23 20 22 77 70 63
53 -4 -5 -2 -18 4 -30 7 -11 12 -24 13 -28 0 -4 9 -14 20 -23 11 -9 14 -13 6
-9 -10 5 -8 -2 5 -25 10 -17 23 -31 28 -31 5 0 1 9 -8 19 -13 14 -14 21 -5 27
7 4 10 3 6 -3 -4 -6 0 -16 8 -23 8 -7 12 -16 10 -21 -7 -10 26 -50 36 -43 16
10 -12 -52 -37 -81 -14 -16 -23 -24 -19 -17 4 7 0 12 -11 12 -14 0 -14 -3 -4
-16 11 -13 9 -20 -19 -47 -26 -27 -33 -30 -41 -17 -5 8 -10 12 -10 8 0 -4 -9
0 -19 9 -11 9 -18 20 -15 25 3 4 -2 8 -11 8 -8 0 -19 8 -22 18 -4 9 -15 24
-24 32 -10 8 -20 29 -22 47 -7 44 -17 59 -29 42 -7 -10 -8 -8 -3 6 14 35 17
72 8 78 -5 3 -8 -7 -7 -21 3 -52 -11 -48 -50 12 -11 18 -13 26 -5 21 8 -5 7 0
-3 11 -9 10 -20 33 -24 49 -4 17 -11 36 -17 43 -5 6 -7 12 -4 12 3 0 1 15 -4
33 -5 17 -12 56 -16 86 -5 44 -3 52 8 45 11 -6 12 -5 3 7 -6 8 -12 34 -13 58
-1 25 -4 48 -7 52 -2 4 0 10 6 14 5 3 10 16 10 29 0 20 7 36 16 36 2 0 2 -10
2 -22z m106 -3 c-9 -14 -18 -25 -21 -25 -5 0 5 18 20 38 17 22 18 13 1 -13z
m350 0 c-4 -8 -8 -15 -10 -15 -2 0 -4 7 -4 15 0 8 4 15 10 15 5 0 7 -7 4 -15z
m775 -11 c14 -12 -19 -1 -35 12 -18 14 -18 14 6 3 14 -6 27 -13 29 -15z
m-1084 7 c3 -5 2 -12 -3 -15 -5 -3 -9 1 -9 9 0 17 3 19 12 6z m339 -12 c-3 -5
-10 -7 -15 -3 -5 3 -7 10 -3 15 3 5 10 7 15 3 5 -3 7 -10 3 -15z m156 7 c0 -8
5 -16 11 -18 7 -2 4 -10 -7 -18 -16 -14 -17 -13 -11 3 5 13 1 17 -14 17 -17 0
-18 2 -7 15 17 18 28 19 28 1z m217 -25 c-6 -14 -24 -47 -39 -73 -15 -27 -25
-48 -22 -48 4 0 2 -6 -3 -12 -10 -13 -28 -86 -25 -100 1 -5 -3 -8 -8 -8 -5 0
-10 5 -10 12 0 6 -3 9 -6 5 -3 -3 -2 -12 2 -19 10 -15 17 -51 18 -93 1 -16 5
-33 11 -37 5 -4 6 -10 2 -15 -11 -10 -27 17 -20 34 7 19 -12 16 -28 -4 -8 -9
-9 -14 -2 -10 7 4 14 -1 18 -13 14 -43 84 -118 136 -144 29 -14 55 -24 57 -21
8 8 -3 15 -28 20 -34 6 -72 34 -64 47 4 7 3 8 -5 4 -6 -4 -18 -1 -26 8 -18 18
-20 30 -2 20 7 -4 9 -3 4 2 -5 5 -13 9 -18 9 -5 0 -9 4 -8 9 0 5 -5 13 -13 17
-10 7 -10 9 2 9 9 0 22 -10 30 -21 23 -34 52 -59 61 -53 5 3 6 -3 2 -13 -6
-16 -5 -17 12 -3 10 8 16 10 12 3 -9 -15 28 -37 45 -27 7 5 8 3 3 -6 -6 -10
-4 -12 10 -6 15 5 16 4 5 -9 -9 -11 -10 -19 -3 -26 8 -8 13 -7 18 2 6 8 4 10
-5 4 -9 -5 -11 -4 -6 3 5 9 13 9 27 2 10 -6 19 -13 19 -16 0 -3 -5 -2 -10 1
-6 3 -17 -1 -26 -9 -8 -9 -11 -16 -6 -16 5 0 11 3 15 6 3 4 45 7 93 9 51 1 81
-1 73 -6 -11 -7 -9 -9 5 -9 11 0 16 -3 13 -7 -4 -3 -19 0 -33 7 -21 12 -27 12
-34 0 -5 -8 -7 -17 -4 -21 5 -9 -93 -22 -122 -18 -10 2 -25 0 -31 -4 -7 -5
-18 -5 -23 -2 -6 4 -36 8 -68 10 -68 4 -114 14 -107 25 2 4 -7 5 -22 2 -18 -3
-24 -1 -19 6 4 8 2 10 -8 6 -8 -3 -23 0 -33 6 -13 8 -13 10 -2 7 9 -3 16 1 16
8 0 10 -5 11 -19 4 -24 -13 -41 -2 -35 22 3 11 1 17 -3 14 -5 -3 -14 3 -19 14
-14 25 -14 42 0 19 5 -10 14 -18 19 -18 12 0 6 33 -7 37 -6 2 -8 13 -5 25 4
18 2 20 -22 16 -23 -5 -31 0 -47 26 -26 42 -25 76 1 71 17 -3 19 -1 10 16 -12
22 -22 26 -14 4 4 -10 0 -13 -14 -10 -18 3 -19 0 -11 -33 5 -24 4 -40 -3 -47
-8 -7 -9 -6 -4 2 4 7 2 22 -5 34 -12 23 -23 136 -12 125 4 -4 9 -19 11 -34 2
-15 5 -29 8 -31 4 -4 8 44 5 62 -1 7 15 11 32 8 5 -1 6 3 2 9 -3 6 -10 8 -14
6 -4 -3 -8 1 -8 8 0 8 6 12 14 9 7 -3 13 0 13 7 0 6 -4 8 -10 5 -5 -3 -11 4
-11 17 -1 14 -5 7 -12 -19 -11 -46 -26 -57 -28 -20 -1 21 -1 21 -9 -3 -4 -14
-8 -40 -9 -57 -1 -34 -15 -44 -25 -18 -3 8 -5 17 -6 20 0 3 -6 18 -15 35 -8
16 -15 38 -15 50 0 12 -4 19 -10 15 -6 -4 -6 -15 0 -30 5 -14 7 -25 4 -25 -4
0 -1 -7 6 -15 7 -8 9 -15 6 -15 -4 0 -1 -9 7 -21 8 -11 13 -30 10 -42 -4 -18
-3 -19 6 -7 9 13 11 13 11 -2 0 -10 -5 -18 -11 -18 -5 0 -8 -4 -4 -9 8 -14
-12 -23 -29 -14 -14 8 -16 12 -16 34 0 5 -5 7 -11 4 -6 -4 -10 -1 -8 6 3 27
-1 40 -11 34 -5 -3 -10 -11 -10 -16 0 -6 4 -7 10 -4 6 3 7 -1 4 -9 -4 -9 1
-18 10 -22 9 -3 14 -9 11 -14 -2 -4 3 -16 11 -26 9 -10 12 -13 8 -5 -4 9 -3
12 4 7 6 -4 9 -13 5 -21 -3 -8 -2 -15 1 -15 4 0 11 10 16 23 7 18 9 18 9 4 1
-10 5 -16 10 -12 5 3 8 16 5 30 -3 19 -1 23 11 19 8 -3 12 -10 9 -15 -3 -5 0
-9 7 -9 7 0 9 -3 6 -6 -13 -13 13 -43 31 -37 10 4 7 -2 -8 -14 -29 -24 -40
-21 -35 7 2 12 0 18 -6 15 -5 -4 -6 -12 -2 -18 3 -7 -3 -4 -14 6 -40 35 -31 3
12 -42 24 -25 41 -48 38 -51 -3 -3 -8 1 -10 8 -3 6 -9 10 -13 7 -5 -3 -29 22
-55 55 -25 33 -51 60 -56 60 -6 0 -8 4 -5 9 3 5 -1 21 -8 37 -22 43 -30 84
-17 84 6 0 8 -8 4 -17 -4 -14 -3 -15 6 -7 8 8 9 18 2 37 -6 15 -13 27 -16 27
-4 0 -3 -5 1 -12 5 -7 3 -8 -5 -3 -9 5 -10 10 -2 18 14 14 14 57 1 57 -5 0
-10 5 -10 11 0 5 4 8 8 5 9 -5 10 -2 16 54 2 19 4 38 5 43 1 4 5 7 11 7 5 0 6
-8 3 -17 -4 -10 7 -3 25 16 17 19 28 39 25 44 -3 6 -1 7 6 3 8 -5 9 -12 3 -19
-9 -11 -21 -64 -28 -124 -1 -13 1 -23 5 -23 5 0 8 14 9 31 1 42 12 89 21 89 4
0 16 -6 27 -14 17 -13 23 -12 52 10 17 14 32 20 32 15 0 -6 -4 -11 -9 -11 -5
0 -9 -10 -9 -22 0 -13 -9 -48 -22 -78 -12 -30 -18 -52 -14 -48 4 5 17 32 28
60 13 33 28 54 40 56 13 3 16 0 11 -10 -6 -10 -5 -11 6 0 7 6 20 12 28 12 11
0 10 -4 -4 -20 -10 -11 -14 -20 -8 -20 5 0 16 11 23 25 7 14 15 23 18 20 2 -2
20 2 39 10 41 17 67 19 58 5 -6 -10 9 -15 30 -10 5 1 7 -2 2 -6 -12 -12 -45
-15 -52 -4 -3 6 -14 10 -23 10 -16 -1 -16 -2 1 -14 9 -7 17 -16 17 -19 0 -4
-8 -4 -17 -1 -15 5 -15 4 -3 -4 10 -8 18 -8 27 0 22 18 14 0 -9 -23 -21 -20
-21 -21 -3 -15 20 6 20 6 1 -9 -18 -13 -22 -13 -38 2 -17 15 -18 15 -18 -1 0
-9 -4 -15 -9 -11 -5 3 -13 0 -17 -6 -4 -8 -3 -9 4 -5 7 4 12 3 12 -3 0 -5 -4
-12 -9 -16 -6 -3 -16 -19 -24 -35 -14 -27 -14 -28 3 -18 9 6 17 18 16 27 0 9
5 15 12 13 8 -1 11 2 7 8 -3 5 -1 10 5 10 6 0 8 5 4 11 -4 7 -1 10 7 7 8 -3
13 -11 11 -17 -1 -7 5 -22 14 -34 l16 -22 -7 22 c-3 13 -2 31 4 40 8 14 11 15
11 3 1 -13 2 -13 13 0 7 8 21 16 32 18 15 2 14 -1 -7 -13 -18 -10 -28 -24 -27
-38 0 -12 -3 -35 -7 -51 -4 -18 -3 -27 3 -23 13 8 13 -25 -1 -42 -9 -12 -8
-13 3 -6 11 6 13 4 8 -9 -6 -14 -3 -15 13 -6 13 7 20 20 19 38 -2 23 -2 24 -6
5 -2 -13 -9 -23 -14 -23 -6 0 -7 5 -3 11 3 6 7 35 8 64 1 37 8 61 21 75 10 11
14 20 10 20 -5 0 0 7 11 15 10 8 14 15 7 15 -6 0 -15 -4 -18 -10 -8 -13 -25
-13 -25 1 0 5 4 8 9 5 5 -3 14 1 21 9 7 8 9 15 6 15 -10 0 15 44 30 53 8 4 14
14 14 21 0 8 7 17 16 20 9 3 14 12 11 19 -3 8 1 14 8 14 10 0 11 -6 2 -26z
m-1530 -3 c-3 -8 -6 -5 -6 6 -1 11 2 17 5 13 3 -3 4 -12 1 -19z m2133 6 c0 -8
-4 -12 -10 -9 -5 3 -10 10 -10 16 0 5 5 9 10 9 6 0 10 -7 10 -16z m34 -24 c-6
-5 -24 21 -24 34 0 6 6 1 14 -10 8 -10 12 -21 10 -24z m84 12 c2 -7 -3 -12
-12 -12 -9 0 -16 -4 -16 -10 0 -5 -6 -9 -12 -7 -7 1 -12 -3 -11 -9 1 -6 -4
-11 -12 -11 -10 0 -11 4 -2 19 7 10 18 18 25 18 8 0 12 6 9 14 -4 9 0 13 11
12 9 -2 18 -8 20 -14z m-963 0 c-3 -3 0 -11 5 -17 8 -9 6 -14 -4 -18 -10 -4
-13 -1 -9 9 3 8 2 14 -3 13 -17 -3 -25 1 -20 9 3 5 12 9 21 9 8 0 13 -3 10 -5z
m621 -5 c4 -3 -4 -4 -16 -2 -30 6 -40 16 -12 12 12 -2 24 -6 28 -10z m-1699
-19 c-3 -8 -6 -5 -6 6 -1 11 2 17 5 13 3 -3 4 -12 1 -19z m1458 14 c-3 -3 0
-11 7 -19 9 -11 8 -13 -3 -11 -27 6 -39 35 -14 35 8 0 13 -3 10 -5z m-1668
-79 c-2 -16 -4 -3 -4 27 0 30 2 43 4 28 2 -16 2 -40 0 -55z m447 62 c-4 -8 -8
-15 -10 -15 -2 0 -4 7 -4 15 0 8 4 15 10 15 5 0 7 -7 4 -15z m990 -1 c3 -8 2
-12 -4 -9 -6 3 -10 10 -10 16 0 14 7 11 14 -7z m726 -14 c-6 -11 -13 -20 -16
-20 -2 0 0 9 6 20 6 11 13 20 16 20 2 0 0 -9 -6 -20z m-1617 -10 c3 -11 1 -33
-3 -48 -5 -15 -9 -22 -10 -17 -1 6 -3 18 -5 28 -2 9 1 17 6 17 6 0 5 8 -1 20
-6 11 -7 20 -2 20 6 0 12 -9 15 -20z m54 -2 c-3 -8 -6 -5 -6 6 -1 11 2 17 5
13 3 -3 4 -12 1 -19z m128 4 c-3 -3 -11 0 -18 7 -9 10 -8 11 6 5 10 -3 15 -9
12 -12z m272 -4 c-3 -8 -6 -5 -6 6 -1 11 2 17 5 13 3 -3 4 -12 1 -19z m-797
-18 c0 -11 -4 -20 -8 -20 -4 0 -8 9 -8 20 0 11 4 20 8 20 4 0 8 -9 8 -20z
m1390 0 c-5 -10 -6 -20 -3 -24 3 -3 2 -6 -4 -6 -6 0 -10 10 -9 23 0 13 6 24
13 24 8 0 9 -6 3 -17z m-1176 -17 c4 -9 4 -18 1 -21 -3 -3 -5 0 -5 7 0 7 -5 9
-10 6 -7 -4 -6 -14 1 -28 9 -19 8 -19 -11 3 -18 21 -21 22 -15 5 5 -16 4 -17
-6 -8 -10 10 -9 16 4 31 9 10 14 22 10 26 -4 4 0 4 9 1 9 -4 19 -14 22 -22z
m1224 7 c-7 -11 -16 -20 -21 -20 -4 0 -3 9 3 20 6 11 15 20 20 20 6 0 5 -9 -2
-20z m-1161 -5 c0 -8 -4 -15 -9 -15 -5 0 -6 -6 -1 -12 12 -21 12 -35 -3 -35
-7 0 -11 4 -8 9 3 4 -1 8 -8 9 -10 0 -10 2 0 6 6 2 9 9 6 14 -3 6 0 16 6 24
15 19 17 19 17 0z m126 0 c4 -8 2 -17 -3 -20 -6 -4 -10 3 -10 14 0 25 6 27 13
6z m-326 -10 c0 -8 -4 -15 -9 -15 -10 0 -11 14 -1 23 9 10 10 9 10 -8z m-92
-274 c20 -77 55 -174 61 -168 3 3 -2 22 -10 43 -20 51 -59 195 -54 199 2 2 14
-29 27 -70 13 -41 27 -75 33 -75 5 0 7 -4 3 -10 -7 -12 33 -92 102 -203 48
-77 57 -86 72 -75 14 12 15 11 2 -5 -12 -15 -9 -21 25 -54 22 -20 32 -33 24
-28 -9 5 -12 5 -7 -1 5 -5 14 -9 20 -9 7 -1 11 -6 10 -12 -1 -6 8 -19 20 -29
l22 -19 -19 23 c-23 27 -10 28 22 2 13 -11 21 -24 17 -30 -4 -6 -1 -9 6 -8 7
2 13 -2 14 -9 0 -6 4 -15 9 -20 5 -5 6 -3 2 5 -11 18 2 15 31 -8 l25 -19 -44
3 c-23 1 -42 8 -41 13 1 6 -5 10 -15 9 -9 0 -16 5 -15 11 2 7 -3 12 -10 10 -6
-1 -11 4 -9 11 1 8 -2 11 -7 8 -11 -7 -62 44 -55 55 3 5 -3 6 -12 2 -13 -5
-16 -2 -12 8 3 9 -11 33 -34 59 l-41 45 37 -47 c21 -26 31 -45 24 -42 -23 9
-102 126 -152 223 -69 134 -97 239 -101 381 l-4 115 9 -110 c4 -60 15 -139 25
-174z m800 269 c3 -5 1 -10 -4 -10 -6 0 -11 5 -11 10 0 6 2 10 4 10 3 0 8 -4
11 -10z m-788 -20 c-2 -11 -6 -22 -9 -26 -4 -3 -5 2 -3 13 2 10 4 21 4 26 1 4
3 7 6 7 3 0 4 -9 2 -20z m740 -9 c0 -11 -5 -18 -9 -15 -4 3 -5 11 -1 19 7 21
12 19 10 -4z m637 -13 c-8 -23 -10 -31 -13 -45 -1 -5 -6 -1 -11 7 -6 9 -10 10
-10 3 0 -6 5 -15 10 -18 6 -3 10 -11 10 -17 0 -6 -6 -6 -15 2 -19 16 -11 69
13 87 20 17 26 10 16 -19z m56 27 c0 -2 -6 -8 -13 -14 -10 -8 -14 -7 -14 2 0
8 6 14 14 14 7 0 13 -1 13 -2z m668 -49 c-18 -24 -35 -42 -37 -40 -4 3 58 84
65 84 3 0 -10 -20 -28 -44z m-1748 25 c0 -5 3 -18 6 -28 6 -16 5 -16 -9 2 -19
23 -21 35 -7 35 6 0 10 -4 10 -9z m-149 -45 c16 -17 10 -28 -6 -12 -8 8 -14
25 -14 38 1 20 2 21 6 3 3 -11 9 -24 14 -29z m-394 12 c-3 -8 -6 -5 -6 6 -1
11 2 17 5 13 3 -3 4 -12 1 -19z m967 14 c3 -5 -1 -9 -9 -9 -8 0 -15 4 -15 9 0
4 4 8 9 8 6 0 12 -4 15 -8z m-38 -28 c1 -9 0 -13 -4 -10 -3 4 -7 14 -8 22 -1
9 0 13 4 10 3 -4 7 -14 8 -22z m-329 -6 c-3 -8 -6 -5 -6 6 -1 11 2 17 5 13 3
-3 4 -12 1 -19z m286 7 c-3 -9 -8 -14 -10 -11 -3 3 -2 9 2 15 9 16 15 13 8 -4z
m1001 3 c-5 -7 9 -12 27 -10 3 1 6 -6 6 -14 0 -7 -4 -14 -9 -14 -4 0 -8 5 -8
11 0 5 -3 8 -7 6 -5 -3 -16 3 -25 12 -16 16 -16 17 2 17 10 0 16 -4 14 -8z
m824 0 c-2 -6 -10 -13 -16 -14 -7 -1 -8 0 -2 3 5 2 8 9 4 14 -3 5 0 9 6 9 7 0
10 -5 8 -12z m-2521 -35 c-3 -10 -5 -4 -5 12 0 17 2 24 5 18 2 -7 2 -21 0 -30z
m1436 7 c-3 -12 -8 -19 -11 -16 -5 6 5 36 12 36 2 0 2 -9 -1 -20z m247 5 c0
-2 -9 -3 -19 -2 -11 0 -18 5 -15 9 4 6 34 0 34 -7z m-928 -35 c3 -21 1 -27 -6
-20 -13 13 -18 50 -7 50 5 0 11 -14 13 -30z m1741 15 c-3 -9 -8 -14 -10 -11
-3 3 -2 9 2 15 9 16 15 13 8 -4z m-1160 -27 l-4 -33 16 30 c12 25 14 26 8 5
-3 -14 -6 -33 -5 -42 1 -14 -16 -38 -19 -26 -7 39 -9 98 -2 98 5 0 8 -15 6
-32z m697 22 c0 -5 -2 -10 -4 -10 -3 0 -8 5 -11 10 -3 6 -1 10 4 10 6 0 11 -4
11 -10z m-370 -10 c0 -5 -2 -10 -4 -10 -3 0 -8 5 -11 10 -3 6 -1 10 4 10 6 0
11 -4 11 -10z m154 -10 c6 -6 -1 -7 -22 -1 -34 10 -42 1 -17 -19 11 -9 15 -9
15 -1 0 7 5 9 13 4 6 -4 21 -6 32 -4 11 2 16 -1 12 -5 -4 -4 -20 -8 -35 -9
-15 0 -26 -5 -25 -11 1 -5 -8 -11 -19 -11 -20 -2 -20 -1 -2 13 17 12 17 13 2
8 -11 -4 -18 -1 -18 6 0 6 -4 9 -10 5 -5 -3 -6 -13 -3 -23 4 -13 2 -13 -11 3
-10 13 -15 15 -13 5 2 -8 2 -12 0 -7 -3 4 -8 5 -12 3 -4 -3 -7 4 -7 14 0 11 6
22 14 25 7 2 10 0 7 -5 -3 -6 1 -10 10 -10 10 0 13 5 9 12 -5 7 -3 8 6 3 10
-6 12 -4 7 8 -5 12 0 15 25 11 17 -2 36 -8 42 -14z m-1579 -20 c-3 -10 -1 -21
5 -25 7 -4 3 -16 -9 -34 -15 -21 -17 -31 -9 -39 7 -7 10 -12 7 -12 -3 0 -16
11 -29 25 -21 23 -21 24 -3 21 11 -3 24 4 31 15 7 10 8 19 3 19 -5 0 -9 13 -9
30 1 16 5 27 10 24 5 -3 6 -14 3 -24z m198 -3 c3 -8 -1 -14 -8 -14 -7 0 -11 6
-8 14 3 7 6 13 8 13 2 0 5 -6 8 -13z m1457 -3 c0 -8 -19 -13 -24 -6 -3 5 1 9
9 9 8 0 15 -2 15 -3z m-1118 -31 c13 -31 15 -38 17 -54 0 -5 6 -7 13 -3 6 4 8
3 4 -4 -3 -6 -1 -14 5 -17 5 -4 8 -13 5 -21 -3 -8 0 -13 6 -11 6 1 17 -9 24
-21 6 -13 17 -29 23 -35 6 -6 11 -17 11 -25 0 -33 -104 111 -116 161 -1 4 -2
8 -3 10 -6 6 -10 47 -6 47 3 0 11 -12 17 -27z m-155 -15 c-3 -8 -6 -5 -6 6 -1
11 2 17 5 13 3 -3 4 -12 1 -19z m333 8 c0 -3 -4 -8 -10 -11 -5 -3 -10 -1 -10
4 0 6 5 11 10 11 6 0 10 -2 10 -4z m420 -14 c0 -13 -12 -22 -22 -16 -10 6 -1
24 13 24 5 0 9 -4 9 -8z m20 -26 c0 -2 -7 -7 -16 -10 -8 -3 -12 -2 -9 4 6 10
25 14 25 6z m-1143 -38 c-3 -8 -6 -5 -6 6 -1 11 2 17 5 13 3 -3 4 -12 1 -19z
m-20 -20 c-3 -8 -6 -5 -6 6 -1 11 2 17 5 13 3 -3 4 -12 1 -19z m40 4 c0 -10
-6 -19 -13 -19 -9 0 -9 5 -1 19 7 10 13 18 14 18 1 0 1 -8 0 -18z m102 -39 c6
-12 7 -24 3 -27 -5 -3 -9 0 -9 7 0 7 -4 21 -8 32 -10 25 -2 18 14 -12z m-82 2
c0 -8 -4 -12 -9 -9 -5 3 -6 10 -3 15 9 13 12 11 12 -6z m723 -8 c0 -8 -3 -8
-9 1 -7 11 -9 11 -14 -2 -3 -8 -2 -17 4 -20 5 -2 4 -3 -3 -2 -15 3 -18 28 -4
38 13 8 26 1 26 -15z m60 19 c0 -2 -7 -9 -15 -16 -13 -11 -14 -10 -9 4 5 14
24 23 24 12z m265 -6 c3 -6 -1 -7 -9 -4 -18 7 -21 14 -7 14 6 0 13 -4 16 -10z
m-1209 -12 c4 -7 4 -10 -1 -6 -4 4 -15 2 -24 -5 -14 -11 -14 -10 -2 6 16 20
18 21 27 5z m138 -38 c-5 -5 -9 4 -10 23 -1 30 -1 30 9 9 6 -14 7 -26 1 -32z
m-327 24 c-3 -3 -12 -4 -19 -1 -8 3 -5 6 6 6 11 1 17 -2 13 -5z m370 -7 c0 -8
-6 -14 -14 -14 -9 0 -10 4 -2 14 6 7 12 13 14 13 1 0 2 -6 2 -13z m1250 -9
c-3 -8 -6 -5 -6 6 -1 11 2 17 5 13 3 -3 4 -12 1 -19z m443 3 c-13 -9 -39 -31
-58 -48 -19 -18 -39 -30 -44 -27 -6 4 -6 9 -1 13 5 3 14 17 21 31 7 14 10 17
8 8 -3 -10 -1 -18 4 -18 9 0 14 15 11 33 -1 5 2 6 7 3 5 -3 17 0 27 8 10 7 25
13 33 13 11 0 8 -5 -8 -16z m-1844 -31 c15 -22 31 -40 36 -40 5 0 7 -4 4 -9
-4 -5 35 -50 86 -100 51 -50 89 -91 85 -91 -6 0 -48 34 -82 67 -7 7 -16 9 -20
5 -4 -4 -5 -2 -3 4 2 6 -15 28 -37 50 -22 21 -49 56 -60 76 -16 31 -22 35 -35
26 -12 -10 -13 -10 -2 2 15 18 16 34 0 24 -6 -4 -8 -3 -4 4 3 5 0 13 -6 15
-10 4 -10 6 -1 6 7 1 25 -17 39 -39z m1492 15 c3 -3 -8 -5 -25 -3 -18 1 -30 5
-27 9 5 8 43 4 52 -6z m-1248 -10 c0 -2 -6 -5 -13 -8 -8 -3 -14 1 -14 8 0 7 6
11 14 8 7 -3 13 -6 13 -8z m510 -26 c0 -6 -4 -7 -10 -4 -5 3 -10 11 -10 16 0
6 5 7 10 4 6 -3 10 -11 10 -16z m-497 -2 c3 -8 0 -14 -7 -14 -7 0 -13 6 -13
14 0 7 4 13 8 13 4 0 9 -6 12 -13z m567 -37 l13 -25 -22 19 c-14 13 -21 15
-21 6 0 -7 -3 -10 -6 -7 -4 4 -1 13 6 22 7 9 14 14 15 13 1 -2 8 -14 15 -28z
m791 17 c-6 -8 -7 -18 -3 -22 4 -5 1 -5 -6 -1 -10 6 -10 11 -1 22 6 8 14 14
16 14 3 0 0 -6 -6 -13z m-1316 -19 c4 4 2 -3 -4 -16 -12 -22 -13 -23 -26 -5
-16 21 -9 39 9 24 7 -6 16 -7 21 -3z m1285 -4 c0 -8 -5 -12 -11 -8 -6 3 -15 1
-19 -7 -8 -12 -26 -19 -57 -21 -7 -1 -13 -5 -13 -10 0 -5 -3 -7 -7 -5 -5 3
-19 0 -33 -6 -27 -11 -32 -12 -105 -22 -109 -14 -244 -7 -287 16 -10 5 -18 7
-18 4 0 -8 -78 33 -85 45 -4 6 -12 7 -18 4 -9 -5 -9 -3 0 6 9 10 15 11 27 1 7
-6 22 -14 32 -16 11 -2 46 -11 79 -20 126 -34 282 -26 427 24 46 15 84 29 86
30 1 0 2 -6 2 -15z m-1527 -86 c26 -31 47 -59 47 -64 0 -10 -30 21 -81 86 -38
48 -63 90 -32 54 10 -12 39 -46 66 -76z m1382 72 c3 -5 -1 -10 -10 -10 -9 0
-13 5 -10 10 3 6 8 10 10 10 2 0 7 -4 10 -10z m-1060 -99 c-2 -2 -14 8 -27 21
-13 14 -28 23 -35 21 -7 -3 -10 4 -6 19 4 18 3 20 -6 8 -6 -8 -11 -10 -11 -4
0 26 15 20 50 -19 21 -23 36 -44 35 -46z m1235 85 c0 -2 -7 -6 -15 -10 -8 -3
-15 -1 -15 4 0 6 7 10 15 10 8 0 15 -2 15 -4z m-1740 -12 c0 -8 -19 -13 -24
-6 -3 5 1 9 9 9 8 0 15 -2 15 -3z m2020 2 c0 -2 -8 -10 -17 -17 -16 -13 -17
-12 -4 4 13 16 21 21 21 13z m194 -52 c-15 -19 -29 -32 -32 -29 -3 3 7 18 21
33 15 16 24 32 20 37 -5 4 -2 5 5 1 9 -5 5 -16 -14 -42z m-1869 26 c3 -6 -1
-7 -9 -4 -18 7 -21 14 -7 14 6 0 13 -4 16 -10z m458 -13 c4 3 7 2 8 -3 6 -49
5 -75 -2 -80 -5 -3 -6 3 -3 13 3 10 -2 6 -11 -9 -16 -29 -35 -37 -35 -15 0 7
-12 17 -26 23 l-25 9 33 36 c20 22 37 33 44 27 6 -4 14 -5 17 -1z m-336 -32
c0 -8 -4 -12 -9 -9 -4 3 -8 9 -8 15 0 5 4 9 8 9 5 0 9 -7 9 -15z m857 -3 c3
-5 -1 -9 -9 -9 -8 0 -12 4 -9 9 3 4 7 8 9 8 2 0 6 -4 9 -8z m-1274 -8 c0 -8
-19 -13 -24 -6 -3 5 1 9 9 9 8 0 15 -2 15 -3z m2100 -8 c0 -2 -8 -10 -17 -17
-16 -13 -17 -12 -4 4 13 16 21 21 21 13z m-1696 -22 c3 -8 2 -12 -4 -9 -6 3
-10 10 -10 16 0 14 7 11 14 -7z m51 6 c3 -6 -1 -7 -9 -4 -18 7 -21 14 -7 14 6
0 13 -4 16 -10z m71 -25 c14 -14 23 -29 20 -34 -9 -14 20 -21 35 -8 11 10 11
9 0 -5 -7 -10 -18 -15 -24 -11 -6 3 -7 1 -3 -5 4 -6 14 -8 23 -5 12 5 14 3 8
-7 -6 -10 -4 -12 9 -7 11 5 15 3 10 -5 -5 -8 -2 -9 10 -5 10 4 19 1 22 -8 4
-8 10 -12 15 -9 5 3 9 3 9 -1 0 -3 -11 -10 -25 -15 -26 -10 -55 -4 -55 12 0 5
5 6 12 2 7 -5 8 -3 4 5 -5 7 -14 10 -22 7 -7 -3 -18 4 -24 15 -7 11 -16 17
-23 12 -7 -4 -5 2 3 12 8 10 10 16 4 12 -14 -8 -56 21 -48 34 4 6 14 3 25 -7
11 -9 22 -15 24 -12 3 3 -8 17 -25 32 -17 14 -26 26 -20 26 6 0 22 -11 36 -25z
m-184 -72 c17 -18 28 -33 22 -33 -9 0 -35 20 -109 84 l-30 26 42 -22 c23 -12
57 -36 75 -55z m-103 23 c25 -17 48 -34 51 -37 20 -24 104 -78 112 -73 6 4 8
3 5 -2 -3 -5 19 -25 48 -44 30 -19 54 -39 55 -44 0 -5 -7 -3 -15 4 -8 7 -15
10 -15 6 0 -4 -11 1 -25 10 -14 9 -25 13 -25 8 0 -4 -7 1 -16 12 -8 10 -13 12
-9 4 4 -10 2 -9 -8 3 -8 9 -22 17 -31 17 -9 0 -19 7 -22 15 -4 8 -11 15 -16
15 -5 0 -27 18 -49 41 -21 22 -39 38 -39 34 0 -3 -7 0 -15 9 -8 8 -15 20 -15
27 0 7 -3 10 -6 6 -4 -3 -13 1 -21 9 -8 8 -19 12 -24 9 -5 -4 -9 -1 -9 5 0 16
34 3 89 -34z m185 36 c3 -5 -1 -9 -9 -9 -8 0 -12 4 -9 9 3 4 7 8 9 8 2 0 6 -4
9 -8z m-460 -84 c9 -10 16 -23 16 -29 0 -5 5 -7 10 -4 6 3 13 -2 17 -12 9 -25
101 -140 116 -146 8 -4 8 -6 1 -6 -19 -2 -150 154 -197 234 l-18 30 20 -25
c11 -14 27 -33 35 -42z m688 22 c43 -26 29 -26 -19 0 -21 11 -32 20 -26 20 7
0 27 -9 45 -20z m88 -52 c0 -6 -6 -5 -15 2 -8 7 -15 14 -15 16 0 2 7 1 15 -2
8 -4 15 -11 15 -16z m1240 18 c0 -3 -4 -8 -10 -11 -5 -3 -10 -1 -10 4 0 6 5
11 10 11 6 0 10 -2 10 -4z m-1210 -26 c0 -5 -2 -10 -4 -10 -3 0 -8 5 -11 10
-3 6 -1 10 4 10 6 0 11 -4 11 -10z m-603 -15 c0 -8 -4 -12 -9 -9 -5 3 -6 10
-3 15 9 13 12 11 12 -6z m643 5 c12 -7 10 -9 -8 -7 -12 0 -22 5 -22 9 0 11 12
10 30 -2z m70 -26 c0 -2 -7 -4 -15 -4 -8 0 -15 4 -15 10 0 5 7 7 15 4 8 -4 15
-8 15 -10z m-390 -30 c0 -8 -4 -12 -10 -9 -5 3 -10 13 -10 21 0 8 5 12 10 9 6
-3 10 -13 10 -21z m965 -4 c3 -6 -1 -7 -9 -4 -18 7 -21 14 -7 14 6 0 13 -4 16
-10z m-839 -34 c3 -8 13 -12 22 -9 10 3 13 1 7 -4 -5 -4 -15 -15 -22 -23 -10
-13 -6 -15 23 -14 19 1 37 -2 40 -7 3 -5 10 -7 15 -3 15 9 1 23 -20 19 -10 -2
-18 3 -18 11 0 9 4 11 10 5 5 -5 15 -7 22 -4 7 2 16 -4 19 -15 4 -11 16 -22
26 -25 11 -3 18 -1 15 3 -3 5 3 7 12 6 11 -2 18 -12 18 -26 0 -13 6 -24 13
-26 7 -1 8 0 2 3 -8 3 -7 9 1 19 14 17 33 19 23 3 -5 -9 1 -10 22 -5 23 5 26
4 14 -5 -12 -9 -11 -10 7 -6 13 3 25 2 28 -3 5 -8 45 -21 45 -14 0 3 -10 9
-22 14 -19 8 -17 9 12 5 19 -3 72 -6 117 -8 70 -2 81 -4 80 -19 -1 -19 -17
-26 -17 -8 0 6 -5 10 -11 10 -5 0 -7 -4 -4 -10 3 -6 1 -10 -4 -10 -6 0 -11 6
-12 13 0 10 -2 10 -6 0 -2 -7 -9 -13 -14 -13 -6 0 -7 5 -4 10 3 6 1 10 -4 10
-6 0 -11 -4 -11 -8 0 -8 -98 -8 -135 1 -11 2 -31 0 -44 -5 -19 -7 -22 -6 -13
4 8 10 -1 13 -44 13 -30 0 -54 3 -54 7 0 4 5 8 12 8 6 0 9 2 6 5 -3 3 -17 1
-32 -4 -25 -10 -38 2 -13 13 6 3 -1 2 -17 -1 -20 -4 -27 -3 -22 6 9 14 0 14
-27 -1 -19 -10 -20 -9 -10 4 11 12 8 14 -21 13 -19 0 -33 3 -30 6 2 4 0 10 -6
14 -15 9 -12 25 4 19 8 -3 17 0 22 7 4 7 3 10 -4 5 -6 -3 -14 -1 -18 5 -4 8
-3 9 4 5 7 -4 12 -3 12 3 0 5 -6 12 -12 14 -10 4 -10 6 0 6 7 1 15 -5 18 -13z
m-236 -11 c0 -8 -2 -15 -4 -15 -2 0 -6 7 -10 15 -3 8 -1 15 4 15 6 0 10 -7 10
-15z m170 -17 c0 -6 -6 -5 -15 2 -8 7 -15 14 -15 16 0 2 7 1 15 -2 8 -4 15
-11 15 -16z m23 7 c-3 -9 -8 -14 -10 -11 -3 3 -2 9 2 15 9 16 15 13 8 -4z
m-144 -61 c14 -12 -19 -1 -35 12 -18 14 -18 14 6 3 14 -6 27 -13 29 -15z
m-249 -30 l25 -28 -31 22 c-17 11 -37 29 -45 38 -13 16 -12 16 6 7 11 -6 31
-24 45 -39z m1280 42 c0 -2 -9 -6 -20 -9 -11 -3 -18 -1 -14 4 5 9 34 13 34 5z
m-50 -10 c0 -2 -7 -7 -16 -10 -8 -3 -12 -2 -9 4 6 10 25 14 25 6z m-40 -16 c0
-5 -3 -9 -7 -8 -5 0 -16 -2 -26 -7 -10 -4 -28 -3 -40 3 -20 10 -18 11 11 6 18
-2 32 0 32 6 0 5 7 10 15 10 8 0 15 -4 15 -10z m-191 -21 c-19 -12 47 -12 70
0 9 5 23 6 31 1 8 -5 -7 -11 -43 -15 -40 -5 -62 -4 -72 5 -12 10 -15 9 -15 -4
0 -10 -4 -15 -10 -11 -17 10 1 33 27 33 18 0 21 -3 12 -9z m-131 -86 c-10 -2
-28 -2 -40 0 -13 2 -5 4 17 4 22 1 32 -1 23 -4z m-105 -20 c-7 -2 -19 -2 -25
0 -7 3 -2 5 12 5 14 0 19 -2 13 -5z"/>
<path d="M1830 2586 c0 -2 9 -6 20 -9 11 -3 18 -1 14 4 -5 9 -34 13 -34 5z"/>
<path d="M1897 2519 c7 -7 15 -10 18 -7 3 3 -2 9 -12 12 -14 6 -15 5 -6 -5z"/>
<path d="M1304 2543 c10 -11 56 -11 50 -1 -3 4 -17 8 -31 8 -15 0 -23 -3 -19
-7z"/>
<path d="M1245 2530 c-3 -6 1 -7 9 -4 18 7 21 14 7 14 -6 0 -13 -4 -16 -10z"/>
<path d="M1754 2458 c10 -6 22 -6 26 -2 5 5 -3 10 -18 11 -22 1 -24 0 -8 -9z"/>
<path d="M2400 2306 c0 -2 8 -10 18 -17 15 -13 16 -12 3 4 -13 16 -21 21 -21
13z"/>
<path d="M2520 2130 c17 -33 32 -60 35 -60 6 0 -5 24 -33 78 -34 65 -36 50 -2
-18z"/>
<path d="M2565 2038 c4 -13 11 -27 16 -33 5 -5 4 5 -2 23 -12 36 -24 44 -14
10z"/>
<path d="M2492 1727 c-8 -9 -8 -17 0 -27 8 -13 9 -12 5 1 -3 9 0 22 6 28 6 6
8 11 5 11 -3 0 -10 -6 -16 -13z"/>
<path d="M2475 1600 c-3 -5 -1 -10 4 -10 6 0 11 5 11 10 0 6 -2 10 -4 10 -3 0
-8 -4 -11 -10z"/>
<path d="M2476 1387 c3 -10 9 -15 12 -12 3 3 0 11 -7 18 -10 9 -11 8 -5 -6z"/>
<path d="M2150 2136 c0 -2 8 -10 18 -17 15 -13 16 -12 3 4 -13 16 -21 21 -21
13z"/>
<path d="M1846 2121 c-3 -5 1 -14 9 -21 8 -7 15 -9 15 -5 0 5 9 0 20 -10 11
-10 17 -22 13 -28 -3 -5 -1 -7 4 -4 11 7 37 -16 28 -25 -3 -2 2 -5 10 -5 10 0
1 16 -26 43 -23 24 -47 42 -53 41 -6 -1 -10 4 -8 11 2 14 -4 16 -12 3z"/>
<path d="M1225 2089 c-4 -6 -5 -12 -2 -15 2 -3 7 2 10 11 7 17 1 20 -8 4z"/>
<path d="M1255 2080 c3 -5 8 -10 11 -10 2 0 4 5 4 10 0 6 -5 10 -11 10 -5 0
-7 -4 -4 -10z"/>
<path d="M1285 2081 c-2 -5 7 -8 20 -8 14 0 25 2 25 6 0 10 -39 11 -45 2z"/>
<path d="M1460 2080 c0 -5 5 -10 11 -10 5 0 7 5 4 10 -3 6 -8 10 -11 10 -2 0
-4 -4 -4 -10z"/>
<path d="M1346 2068 c3 -5 10 -6 15 -3 13 9 11 12 -6 12 -8 0 -12 -4 -9 -9z"/>
<path d="M1375 2060 c-3 -5 1 -10 10 -10 9 0 13 5 10 10 -3 6 -8 10 -10 10 -2
0 -7 -4 -10 -10z"/>
<path d="M1490 2061 c0 -6 4 -12 8 -15 5 -3 9 1 9 9 0 8 -4 15 -9 15 -4 0 -8
-4 -8 -9z"/>
<path d="M1553 1920 c-13 -15 -20 -17 -32 -8 -10 7 -9 4 2 -8 17 -18 19 -18
28 -1 6 9 14 15 18 13 4 -3 8 1 8 9 0 20 -4 19 -24 -5z"/>
<path d="M1446 1867 c3 -10 9 -15 12 -12 3 3 0 11 -7 18 -10 9 -11 8 -5 -6z"/>
<path d="M1631 1814 c0 -11 3 -14 6 -6 3 7 2 16 -1 19 -3 4 -6 -2 -5 -13z"/>
<path d="M1456 1743 c-6 -14 -5 -15 5 -6 7 7 10 15 7 18 -3 3 -9 -2 -12 -12z"/>
<path d="M1549 1693 c-13 -16 -12 -17 4 -4 9 7 17 15 17 17 0 8 -8 3 -21 -13z"/>
<path d="M1730 1660 c0 -5 5 -10 10 -10 6 0 10 5 10 10 0 6 -4 10 -10 10 -5 0
-10 -4 -10 -10z"/>
<path d="M1465 1589 c-3 -4 2 -6 10 -5 21 3 28 13 10 13 -9 0 -18 -4 -20 -8z"/>
<path d="M2068 1807 c16 -7 22 -17 18 -30 -2 -10 -2 -16 1 -13 3 3 12 -2 20
-12 10 -13 10 -8 -2 22 -8 21 -15 39 -15 40 0 1 -10 2 -22 3 l-23 1 23 -11z"/>
<path d="M2095 1700 c-3 -5 -1 -10 4 -10 6 0 11 5 11 10 0 6 -2 10 -4 10 -3 0
-8 -4 -11 -10z"/>
<path d="M2114 1674 c-4 -14 -2 -30 4 -36 6 -6 8 -17 5 -24 -3 -8 0 -20 6 -28
6 -7 9 -16 6 -19 -3 -4 -2 -5 2 -2 4 3 8 16 10 28 2 18 1 19 -7 7 -9 -12 -10
-12 -8 5 1 11 -1 26 -5 33 -5 7 -4 12 2 12 6 0 11 5 11 11 0 5 -5 7 -11 3 -8
-4 -9 0 -4 15 3 11 4 21 1 21 -3 0 -9 -12 -12 -26z"/>
<path d="M2152 1535 c0 -16 2 -22 5 -12 2 9 2 23 0 30 -3 6 -5 -1 -5 -18z"/>
<path d="M2516 1911 c-3 -5 1 -14 8 -20 12 -10 13 -8 9 8 -6 23 -9 25 -17 12z"/>
<path d="M2741 1754 c0 -11 3 -14 6 -6 3 7 2 16 -1 19 -3 4 -6 -2 -5 -13z"/>
<path d="M2762 1580 c0 -19 2 -27 5 -17 2 9 2 25 0 35 -3 9 -5 1 -5 -18z"/>
<path d="M2762 1465 c0 -16 2 -22 5 -12 2 9 2 23 0 30 -3 6 -5 -1 -5 -18z"/>
<path d="M2747 1303 c-3 -4 -8 -25 -12 -45 -4 -21 -11 -36 -15 -33 -5 3 -5 -8
0 -24 7 -25 6 -29 -7 -24 -13 5 -13 3 -4 -15 10 -18 9 -21 -4 -16 -9 4 -15 3
-14 -2 1 -5 0 -12 -1 -16 -1 -5 -3 -11 -4 -15 -1 -5 -7 -18 -14 -31 -7 -12
-10 -28 -6 -34 4 -6 3 -8 -4 -4 -6 4 -16 -8 -23 -29 -7 -19 -17 -35 -23 -35
-5 0 -6 -3 -3 -7 4 -3 -1 -12 -11 -20 -9 -8 -12 -12 -6 -9 6 3 11 -1 11 -8 0
-8 -6 -12 -13 -9 -6 2 -15 -1 -20 -8 -5 -8 -3 -10 7 -4 12 8 12 6 0 -8 -7 -9
-17 -15 -21 -12 -10 6 -8 -15 3 -31 4 -7 0 -15 -9 -18 -8 -3 -12 -11 -8 -18 5
-8 13 -4 26 11 18 23 16 47 -4 35 -7 -4 -8 -2 -4 4 4 6 12 9 19 6 13 -5 18 2
70 98 20 36 33 69 30 72 -4 3 -1 6 6 6 7 0 9 5 6 10 -3 6 -1 10 6 10 7 0 10 3
7 6 -4 3 3 25 13 50 11 24 17 49 14 54 -3 5 1 33 10 61 14 48 15 73 2 52z"/>
<path d="M2716 1283 c-6 -14 -5 -15 5 -6 7 7 10 15 7 18 -3 3 -9 -2 -12 -12z"/>
<path d="M2666 1203 c-6 -14 -5 -15 5 -6 7 7 10 15 7 18 -3 3 -9 -2 -12 -12z"/>
<path d="M2645 1169 c-11 -16 -1 -19 13 -3 7 8 8 14 3 14 -5 0 -13 -5 -16 -11z"/>
<path d="M2629 1138 c0 -2 -2 -10 -4 -18 -2 -8 -6 -24 -11 -35 -10 -28 0 -16
20 23 9 18 12 32 6 32 -5 0 -10 -1 -11 -2z"/>
<path d="M2442 779 c2 -8 -3 -13 -10 -11 -8 1 -11 -2 -7 -8 6 -9 -8 -14 -28
-11 -5 1 -6 -3 -2 -8 7 -12 -29 -33 -40 -23 -5 4 -4 1 0 -7 6 -10 4 -13 -7 -9
-8 4 -15 0 -15 -8 0 -15 3 -13 67 30 25 17 48 31 52 31 16 0 17 13 3 25 -13
11 -16 11 -13 -1z"/>
<path d="M2217 687 c-3 -8 1 -14 8 -14 7 0 11 6 8 14 -3 7 -6 13 -8 13 -2 0
-5 -6 -8 -13z"/>
<path d="M2300 686 c0 -2 8 -10 18 -17 15 -13 16 -12 3 4 -13 16 -21 21 -21
13z"/>
<path d="M2190 671 c0 -5 -17 -15 -37 -22 -21 -7 -33 -14 -26 -16 7 -2 22 1
34 7 15 8 19 9 15 1 -9 -14 4 -14 24 -1 9 6 11 10 3 10 -7 0 -10 7 -7 15 4 8
3 15 0 15 -3 0 -6 -4 -6 -9z"/>
<path d="M2065 660 c-3 -6 1 -7 9 -4 18 7 21 14 7 14 -6 0 -13 -4 -16 -10z"/>
<path d="M2251 667 c2 -1 13 -9 24 -17 19 -14 19 -14 6 3 -7 9 -18 17 -24 17
-6 0 -8 -1 -6 -3z"/>
<path d="M2030 650 c-9 -6 -10 -10 -3 -10 6 0 15 5 18 10 8 12 4 12 -15 0z"/>
<path d="M2240 640 c-9 -6 -10 -10 -3 -10 6 0 15 5 18 10 8 12 4 12 -15 0z"/>
<path d="M1345 619 c-4 -6 -14 -8 -24 -4 -10 4 -12 3 -6 -3 17 -16 55 -24 55
-12 0 6 -5 8 -12 4 -8 -5 -9 -2 -5 9 7 19 2 23 -8 6z"/>
<path d="M1914 622 c4 -3 14 -7 22 -8 9 -1 13 0 10 4 -4 3 -14 7 -22 8 -9 1
-13 0 -10 -4z"/>
<path d="M2090 615 l25 -15 -32 6 c-35 7 -45 -8 -17 -24 11 -6 30 -3 58 11 22
11 52 22 65 23 40 5 36 13 -5 10 -22 -2 -41 -5 -44 -6 -3 -1 -9 -1 -15 0 -5 1
-21 4 -35 6 l-25 4 25 -15z m0 -25 c0 -5 -2 -10 -4 -10 -3 0 -8 5 -11 10 -3 6
-1 10 4 10 6 0 11 -4 11 -10z"/>
<path d="M1868 613 c6 -2 18 -2 25 0 6 3 1 5 -13 5 -14 0 -19 -2 -12 -5z"/>
<path d="M1984 598 c-5 -8 -1 -9 12 -4 14 5 16 4 7 -4 -6 -7 -30 -13 -52 -13
-24 -1 -36 -4 -28 -9 8 -5 7 -8 -5 -9 -31 -3 -36 -4 -43 -11 -4 -4 8 -5 26 -2
52 7 63 9 74 15 21 12 67 20 61 10 -4 -5 -3 -12 2 -15 4 -2 9 4 9 15 1 13 -7
23 -23 29 -32 12 -31 12 -40 -2z"/>
<path d="M1918 593 c6 -2 18 -2 25 0 6 3 1 5 -13 5 -14 0 -19 -2 -12 -5z"/>
<path d="M1408 573 c7 -3 16 -2 19 1 4 3 -2 6 -13 5 -11 0 -14 -3 -6 -6z"/>
<path d="M1838 573 c7 -3 16 -2 19 1 4 3 -2 6 -13 5 -11 0 -14 -3 -6 -6z"/>
<path d="M1500 550 c-12 -7 -10 -9 8 -7 12 0 22 5 22 9 0 11 -12 10 -30 -2z"/>
<path d="M1823 545 c0 -6 8 -12 17 -12 9 -1 17 4 17 11 0 6 -8 12 -17 12 -9 0
-17 -5 -17 -11z"/>
<path d="M1998 553 c7 -3 16 -2 19 1 4 3 -2 6 -13 5 -11 0 -14 -3 -6 -6z"/>
<path d="M1560 540 c-12 -7 -10 -9 7 -7 12 0 19 5 17 9 -6 10 -6 10 -24 -2z"/>
<path d="M1616 529 c5 -8 164 -9 164 -1 0 4 -38 7 -84 7 -46 0 -82 -3 -80 -6z"/>
<path d="M1179 405 c18 -8 36 -15 40 -15 13 1 -45 29 -59 29 -8 0 0 -6 19 -14z"/>
<path d="M1831 409 c8 -4 7 -8 -2 -12 -10 -4 -9 -6 4 -6 9 -1 17 4 17 10 0 5
3 8 8 6 4 -3 16 -1 27 3 14 5 7 7 -22 7 -24 -1 -38 -4 -32 -8z"/>
<path d="M1621 384 c-19 -8 -32 -17 -29 -19 7 -7 55 11 63 24 8 14 8 13 -34
-5z"/>
<path d="M1225 380 c-3 -6 1 -7 9 -4 18 7 21 14 7 14 -6 0 -13 -4 -16 -10z"/>
<path d="M1520 370 c8 -5 20 -10 25 -10 6 0 3 5 -5 10 -8 5 -19 10 -25 10 -5
0 -3 -5 5 -10z"/>
<path d="M1880 340 c-18 -12 -2 -12 25 0 13 6 15 9 5 9 -8 0 -22 -4 -30 -9z"/>
<path d="M1800 331 c13 -9 12 -11 -4 -11 -11 0 -17 -2 -14 -5 3 -3 23 -1 44 4
22 5 30 9 17 10 -12 1 -30 4 -40 7 -15 5 -15 4 -3 -5z"/>
<path d="M1664 298 c-3 -4 2 -8 10 -8 8 0 17 4 20 8 3 5 -2 9 -10 9 -8 0 -17
-4 -20 -9z"/>
<path d="M1543 293 c9 -2 23 -2 30 0 6 3 -1 5 -18 5 -16 0 -22 -2 -12 -5z"/>
<path d="M886 1792 c-3 -5 1 -9 9 -9 8 0 12 4 9 9 -3 4 -7 8 -9 8 -2 0 -6 -4
-9 -8z"/>
<path d="M925 1710 c-3 -5 -1 -10 4 -10 6 0 11 5 11 10 0 6 -2 10 -4 10 -3 0
-8 -4 -11 -10z"/>
<path d="M526 1315 c-9 -26 -7 -32 5 -12 6 10 9 21 6 23 -2 3 -7 -2 -11 -11z"/>
<path d="M525 1260 c-3 -5 -1 -10 4 -10 6 0 11 5 11 10 0 6 -2 10 -4 10 -3 0
-8 -4 -11 -10z"/>
<path d="M505 1160 c-3 -6 1 -7 9 -4 18 7 21 14 7 14 -6 0 -13 -4 -16 -10z"/>
<path d="M460 1140 c0 -6 7 -10 15 -10 8 0 15 2 15 4 0 2 -7 6 -15 10 -8 3
-15 1 -15 -4z"/>
<path d="M510 1120 c0 -5 5 -10 11 -10 5 0 7 5 4 10 -3 6 -8 10 -11 10 -2 0
-4 -4 -4 -10z"/>
<path d="M469 1113 c-1 -5 -1 -16 0 -25 1 -10 -3 -18 -8 -18 -6 0 -11 -6 -11
-14 0 -9 7 -12 18 -10 12 4 17 15 17 40 0 18 -3 34 -7 34 -5 0 -9 -3 -9 -7z"/>
<path d="M580 1079 c0 -5 5 -7 10 -4 6 3 10 8 10 11 0 2 -4 4 -10 4 -5 0 -10
-5 -10 -11z"/>
<path d="M1410 1410 c0 -5 0 -12 0 -15 0 -12 14 -4 16 10 1 8 -2 15 -7 15 -5
0 -9 -4 -9 -10z"/>
<path d="M1586 1452 c-3 -5 1 -9 9 -9 8 0 12 4 9 9 -3 4 -7 8 -9 8 -2 0 -6 -4
-9 -8z"/>
<path d="M2310 1290 c0 -5 5 -10 11 -10 5 0 7 5 4 10 -3 6 -8 10 -11 10 -2 0
-4 -4 -4 -10z"/>
<path d="M576 1398 c3 -4 9 -8 15 -8 5 0 9 4 9 8 0 5 -7 9 -15 9 -8 0 -12 -4
-9 -9z"/>
<path d="M852 1310 c0 -14 2 -19 5 -12 2 6 2 18 0 25 -3 6 -5 1 -5 -13z"/>
<path d="M1000 1265 c-7 -9 -11 -17 -9 -20 3 -2 10 5 17 15 14 24 10 26 -8 5z"/>
<path d="M863 1254 c0 -7 4 -11 8 -8 4 2 10 -4 12 -13 4 -14 5 -14 6 3 0 12
-5 24 -12 27 -8 3 -14 -1 -14 -9z"/>
<path d="M886 1165 c-4 -16 -11 -23 -18 -19 -7 5 -8 3 -4 -5 6 -9 12 -8 25 6
18 18 24 43 10 43 -4 0 -10 -11 -13 -25z"/>
<path d="M1010 1150 c-9 -6 -10 -10 -3 -10 6 0 15 5 18 10 8 12 4 12 -15 0z"/>
<path d="M890 1114 c0 -24 49 -121 64 -127 19 -8 9 26 -15 52 -11 12 -17 26
-13 33 5 7 3 8 -6 3 -10 -6 -12 -3 -8 13 4 14 2 20 -5 15 -6 -4 -8 0 -4 10 3
10 2 17 -3 17 -6 0 -10 -7 -10 -16z"/>
<path d="M990 1100 c0 -5 5 -10 11 -10 5 0 7 5 4 10 -3 6 -8 10 -11 10 -2 0
-4 -4 -4 -10z"/>
<path d="M1086 1082 c2 -3 -1 -11 -7 -18 -6 -7 -6 -14 -1 -18 13 -8 25 25 14
34 -5 4 -7 5 -6 2z"/>
<path d="M940 902 c0 -18 4 -32 9 -32 5 0 7 12 5 27 -7 39 -14 42 -14 5z"/>
<path d="M1050 825 c0 -19 97 -108 105 -96 4 7 1 10 -7 9 -7 -2 -12 4 -10 12
2 8 0 12 -4 8 -10 -11 -35 12 -27 25 3 5 1 7 -5 3 -5 -3 -20 6 -31 21 -11 16
-21 23 -21 18z"/>
<path d="M1405 1199 c-4 -6 -5 -12 -2 -15 2 -3 7 2 10 11 7 17 1 20 -8 4z"/>
<path d="M1442 1200 c3 -13 -15 -39 -23 -34 -5 3 -9 0 -9 -5 0 -6 7 -11 15
-11 8 0 15 4 15 10 0 5 10 18 21 29 22 20 22 20 1 18 -11 0 -20 -4 -20 -7z"/>
<path d="M1530 1201 c0 -6 4 -13 10 -16 6 -3 7 1 4 9 -7 18 -14 21 -14 7z"/>
<path d="M1556 1023 c-6 -14 -5 -15 5 -6 7 7 10 15 7 18 -3 3 -9 -2 -12 -12z"/>
<path d="M1443 934 c-3 -8 -10 -11 -16 -7 -6 3 -7 1 -3 -5 11 -18 26 -14 26 5
0 15 2 14 15 -3 15 -18 15 -18 8 0 -5 15 -3 17 8 11 8 -5 11 -4 6 0 -13 15
-38 14 -44 -1z"/>
<path d="M1490 880 c0 -5 5 -10 11 -10 5 0 7 5 4 10 -3 6 -8 10 -11 10 -2 0
-4 -4 -4 -10z"/>
<path d="M1520 871 c0 -6 4 -13 10 -16 6 -3 7 1 4 9 -7 18 -14 21 -14 7z"/>
<path d="M1506 825 c7 -17 20 -20 28 -6 3 5 -1 12 -10 15 -22 9 -24 8 -18 -9z"/>
<path d="M1544 809 c-3 -6 -3 -13 0 -16 3 -4 6 0 6 7 0 9 5 8 19 -4 14 -13 21
-14 27 -5 4 8 3 10 -4 5 -7 -4 -12 -3 -12 2 0 14 -28 23 -36 11z"/>
<path d="M1500 779 c0 -5 5 -7 10 -4 6 3 10 8 10 11 0 2 -4 4 -10 4 -5 0 -10
-5 -10 -11z"/>
<path d="M1610 781 c0 -7 4 -9 10 -6 5 3 20 0 32 -7 30 -16 48 -19 48 -7 0 5
-3 9 -7 10 -10 1 -32 6 -60 15 -15 4 -23 2 -23 -5z"/>
<path d="M1710 760 c0 -5 5 -10 10 -10 6 0 10 5 10 10 0 6 -4 10 -10 10 -5 0
-10 -4 -10 -10z"/>
<path d="M1740 760 c0 -5 5 -10 11 -10 5 0 7 5 4 10 -3 6 -8 10 -11 10 -2 0
-4 -4 -4 -10z"/>
<path d="M1773 755 c0 -8 4 -12 9 -9 5 3 6 10 3 15 -9 13 -12 11 -12 -6z"/>
<path d="M1800 760 c0 -5 5 -10 11 -10 5 0 7 5 4 10 -3 6 -8 10 -11 10 -2 0
-4 -4 -4 -10z"/>
<path d="M461 750 c14 -31 19 -36 19 -24 0 6 -7 19 -16 30 -14 18 -14 18 -3
-6z"/>
<path d="M490 690 c6 -11 13 -20 16 -20 2 0 0 9 -6 20 -6 11 -13 20 -16 20 -2
0 0 -9 6 -20z"/>
<path d="M525 636 c10 -14 19 -26 22 -26 7 0 -17 39 -28 46 -6 3 -3 -5 6 -20z"/>
<path d="M1096 463 c-6 -14 -5 -15 5 -6 7 7 10 15 7 18 -3 3 -9 -2 -12 -12z"/>
<path d="M1463 213 c9 -2 23 -2 30 0 6 3 -1 5 -18 5 -16 0 -22 -2 -12 -5z"/>
<path d="M1680 2790 c34 -11 60 -11 35 0 -11 5 -29 8 -40 8 -16 0 -15 -2 5 -8z"/>
<path d="M1748 2773 c7 -3 16 -2 19 1 4 3 -2 6 -13 5 -11 0 -14 -3 -6 -6z"/>
<path d="M1805 2756 c95 -44 215 -94 211 -87 -6 9 -180 86 -216 95 -20 5 -19
4 5 -8z"/>
<path d="M830 2730 c-8 -5 -10 -10 -5 -10 6 0 17 5 25 10 8 5 11 10 5 10 -5 0
-17 -5 -25 -10z"/>
<path d="M780 2710 c-8 -5 -10 -10 -5 -10 6 0 17 5 25 10 8 5 11 10 5 10 -5 0
-17 -5 -25 -10z"/>
<path d="M1528 2693 c7 -3 16 -2 19 1 4 3 -2 6 -13 5 -11 0 -14 -3 -6 -6z"/>
<path d="M2112 2528 c2 -6 10 -14 16 -16 7 -2 10 2 6 12 -7 18 -28 22 -22 4z"/>
<path d="M399 2473 c-13 -16 -12 -17 4 -4 9 7 17 15 17 17 0 8 -8 3 -21 -13z"/>
<path d="M2385 2450 c10 -11 20 -20 23 -20 3 0 -3 9 -13 20 -10 11 -20 20 -23
20 -3 0 3 -9 13 -20z"/>
<path d="M295 2378 l-70 -73 73 70 c39 38 72 71 72 72 0 8 -11 -2 -75 -69z"/>
<path d="M1160 2439 c0 -5 -3 -8 -7 -6 -5 3 -17 1 -28 -3 -14 -5 -6 -7 25 -8
25 0 39 2 32 5 -6 3 -10 9 -6 14 3 5 0 9 -5 9 -6 0 -11 -5 -11 -11z"/>
<path d="M2430 2396 c0 -2 8 -10 18 -17 15 -13 16 -12 3 4 -13 16 -21 21 -21
13z"/>
<path d="M1205 2309 c-5 -7 82 -5 89 2 3 3 -15 5 -40 5 -25 -1 -47 -3 -49 -7z"/>
<path d="M1316 2310 c8 -7 74 -7 74 0 0 4 -18 7 -39 6 -22 0 -37 -3 -35 -6z"/>
<path d="M1150 2299 c0 -5 -7 -6 -15 -3 -23 9 -155 -27 -148 -40 3 -6 0 -5 -8
2 -18 16 -29 15 -29 -3 0 -8 -9 -15 -20 -15 -14 0 -18 -5 -13 -16 4 -10 8 -12
13 -4 3 6 13 9 21 7 8 -2 11 -2 6 0 -18 11 6 21 28 13 20 -7 25 -6 25 5 0 9
14 17 40 21 22 4 40 10 40 15 0 5 13 7 30 5 16 -2 37 2 46 9 15 11 15 12 0 12
-9 0 -16 -4 -16 -8z"/>
<path d="M1434 2302 c4 -3 14 -7 22 -8 9 -1 13 0 10 4 -4 3 -14 7 -22 8 -9 1
-13 0 -10 -4z"/>
<path d="M1484 2292 c4 -3 14 -7 22 -8 9 -1 13 0 10 4 -4 3 -14 7 -22 8 -9 1
-13 0 -10 -4z"/>
<path d="M895 2257 c-22 -12 -41 -25 -43 -29 -2 -4 -11 -5 -20 -2 -12 4 -11 2
3 -7 11 -7 24 -17 28 -23 5 -7 7 -3 5 9 -2 13 5 23 20 30 12 5 22 13 22 17 0
4 6 5 13 2 8 -3 14 2 14 11 0 8 -1 15 -1 15 -1 -1 -19 -11 -41 -23z"/>
<path d="M1158 2263 c7 -3 16 -2 19 1 4 3 -2 6 -13 5 -11 0 -14 -3 -6 -6z"/>
<path d="M1186 2255 c-3 -9 -6 -22 -5 -28 0 -7 5 -1 10 12 5 13 8 26 5 28 -2
2 -6 -3 -10 -12z"/>
<path d="M1620 2249 c0 -5 5 -7 10 -4 6 3 10 8 10 11 0 2 -4 4 -10 4 -5 0 -10
-5 -10 -11z"/>
<path d="M1650 2243 c-13 -15 -12 -16 2 -10 9 3 19 1 21 -6 3 -7 4 -2 4 11 -1
26 -7 27 -27 5z"/>
<path d="M400 2239 c0 -5 5 -7 10 -4 6 3 10 8 10 11 0 2 -4 4 -10 4 -5 0 -10
-5 -10 -11z"/>
<path d="M1063 2243 c9 -2 25 -2 35 0 9 3 1 5 -18 5 -19 0 -27 -2 -17 -5z"/>
<path d="M1136 2234 c-5 -14 -4 -15 8 -5 11 9 15 9 19 -1 4 -8 6 -7 6 5 1 22
-25 22 -33 1z"/>
<path d="M2920 2225 c0 -8 4 -15 10 -15 5 0 7 7 4 15 -4 8 -8 15 -10 15 -2 0
-4 -7 -4 -15z"/>
<path d="M875 2221 c-3 -5 -1 -12 5 -16 5 -3 10 -1 10 5 0 6 5 8 10 5 6 -3 10
-1 10 4 0 13 -27 14 -35 2z"/>
<path d="M1090 2216 c7 -7 13 -7 20 0 6 6 3 10 -10 10 -13 0 -16 -4 -10 -10z"/>
<path d="M803 2209 c16 -9 17 -13 4 -27 -8 -10 -17 -24 -21 -32 -5 -9 -2 -8 7
2 8 10 18 14 22 10 5 -4 5 -1 1 6 -5 8 0 12 13 12 29 0 26 19 -5 30 -33 13
-44 12 -21 -1z"/>
<path d="M750 2200 c-13 -8 -13 -10 2 -10 9 0 20 5 23 10 8 13 -5 13 -25 0z"/>
<path d="M950 2179 c0 -5 5 -7 10 -4 6 3 10 8 10 11 0 2 -4 4 -10 4 -5 0 -10
-5 -10 -11z"/>
<path d="M695 2169 c-4 -6 -14 -8 -24 -4 -13 5 -14 4 -3 -6 10 -11 15 -10 29
4 10 9 14 17 11 17 -4 0 -10 -5 -13 -11z"/>
<path d="M753 2138 c-2 -16 1 -18 10 -9 7 7 8 14 1 21 -6 6 -10 2 -11 -12z"/>
<path d="M870 2149 c0 -5 5 -7 10 -4 6 3 10 8 10 11 0 2 -4 4 -10 4 -5 0 -10
-5 -10 -11z"/>
<path d="M629 2132 c-15 -13 -19 -21 -10 -26 7 -5 10 -2 9 6 -2 7 4 13 13 12
9 -1 16 5 16 12 0 18 0 18 -28 -4z"/>
<path d="M790 2114 c-42 -24 -45 -24 -57 -8 -7 10 -13 13 -13 7 0 -7 5 -15 10
-18 8 -5 7 -11 -1 -21 -14 -17 -30 -9 -22 11 9 24 -10 17 -40 -15 -16 -17 -33
-27 -38 -24 -5 3 -8 0 -7 -8 2 -7 -4 -12 -12 -10 -8 2 -12 1 -8 -3 10 -10 -24
-45 -36 -38 -6 4 -5 -1 3 -11 14 -16 15 -16 25 1 5 10 19 25 30 34 12 9 32 26
45 38 17 15 28 18 36 11 9 -8 30 1 74 30 33 22 61 43 61 45 0 7 -2 7 -50 -21z"/>
<path d="M585 2100 c-4 -6 -12 -7 -18 -3 -8 5 -8 2 0 -9 7 -8 11 -18 8 -21 -3
-4 -2 -4 3 -1 4 3 7 9 7 12 0 4 4 13 8 20 5 6 6 12 3 12 -3 0 -8 -5 -11 -10z"/>
<path d="M2950 2100 c0 -5 5 -10 10 -10 6 0 10 5 10 10 0 6 -4 10 -10 10 -5 0
-10 -4 -10 -10z"/>
<path d="M2965 2033 c4 -27 9 -55 10 -63 2 -8 4 -31 5 -50 l2 -35 9 30 c11 35
3 104 -14 133 -5 6 -5 17 -2 22 3 6 1 10 -6 10 -8 0 -9 -14 -4 -47z"/>
<path d="M435 1840 c-3 -5 -1 -10 4 -10 6 0 11 5 11 10 0 6 -2 10 -4 10 -3 0
-8 -4 -11 -10z"/>
<path d="M2994 1730 c0 -69 1 -97 3 -62 2 34 2 90 0 125 -2 34 -3 6 -3 -63z"/>
<path d="M385 1760 c-4 -6 -9 -22 -11 -37 -3 -14 -14 -37 -24 -51 -11 -14 -20
-29 -20 -35 0 -18 53 68 56 90 1 12 5 27 9 32 3 6 4 11 1 11 -3 0 -8 -5 -11
-10z"/>
<path d="M98 1685 c-3 -14 -2 -25 2 -25 11 0 20 39 10 45 -4 3 -10 -6 -12 -20z"/>
<path d="M79 1695 c-1 -3 -2 -8 -3 -12 -1 -5 -5 -17 -9 -29 -4 -12 -3 -32 2
-45 l9 -24 11 28 c6 16 8 34 4 40 -4 7 -6 20 -5 30 3 15 -6 26 -9 12z m11 -55
c0 -5 -5 -10 -11 -10 -5 0 -7 5 -4 10 3 6 8 10 11 10 2 0 4 -4 4 -10z"/>
<path d="M47 1595 c-4 -9 -1 -23 7 -31 20 -19 27 -4 12 25 -11 20 -14 21 -19
6z"/>
<path d="M35 1551 c-5 -10 -4 -16 3 -19 7 -2 12 -8 12 -13 0 -6 -4 -7 -10 -4
-9 6 -12 -1 -9 -22 1 -5 6 -7 13 -5 6 1 2 -5 -9 -13 -25 -19 -31 -105 -8 -105
10 0 13 9 9 30 -2 17 0 30 6 30 6 0 8 9 5 20 -3 11 -1 20 5 20 6 0 8 8 5 19
-2 10 0 26 6 36 6 12 6 16 -1 11 -6 -3 -12 2 -14 11 -3 15 -5 16 -13 4z"/>
<path d="M2980 1525 c0 -76 -4 -115 -12 -115 -5 0 -8 -6 -7 -12 2 -7 -3 -31
-9 -53 -8 -26 -8 -41 -2 -43 15 -5 12 -22 -2 -19 -7 1 -13 -7 -13 -18 0 -27
30 -26 31 1 1 12 4 26 8 33 4 6 1 11 -7 11 -10 0 -13 7 -10 21 4 15 8 17 14 8
4 -8 11 -10 15 -6 4 3 2 13 -5 21 -9 11 -8 15 3 19 11 4 13 25 12 91 -1 47 -5
89 -9 93 -4 4 -8 -11 -7 -32z m-26 -261 c3 -8 2 -12 -4 -9 -6 3 -10 10 -10 16
0 14 7 11 14 -7z"/>
<path d="M241 1384 c0 -11 3 -14 6 -6 3 7 2 16 -1 19 -3 4 -6 -2 -5 -13z"/>
<path d="M12 1325 c1 -19 6 -35 10 -35 4 0 7 16 5 35 -1 19 -6 35 -10 35 -4 0
-7 -16 -5 -35z"/>
<path d="M14 1115 c0 -66 1 -92 3 -57 2 34 2 88 0 120 -2 31 -3 3 -3 -63z"/>
<path d="M251 1144 c0 -11 3 -14 6 -6 3 7 2 16 -1 19 -3 4 -6 -2 -5 -13z"/>
<path d="M261 1084 c0 -11 3 -14 6 -6 3 7 2 16 -1 19 -3 4 -6 -2 -5 -13z"/>
<path d="M17 924 c-7 -41 5 -134 20 -157 9 -14 10 -19 12 -47 0 -11 6 -20 12
-20 5 0 8 4 5 8 -7 12 -16 63 -30 167 -11 84 -13 87 -19 49z"/>
<path d="M280 950 c-8 -5 -12 -11 -9 -14 2 -3 11 -1 19 4 8 5 12 11 9 14 -2 3
-11 1 -19 -4z"/>
<path d="M2705 458 l-50 -53 53 50 c28 27 52 51 52 52 0 8 -9 -1 -55 -49z"/>
<path d="M550 466 c0 -2 8 -10 18 -17 15 -13 16 -12 3 4 -13 16 -21 21 -21 13z"/>
<path d="M2604 368 l-19 -23 23 19 c12 11 22 21 22 23 0 8 -8 2 -26 -19z"/>
<path d="M2509 293 c-13 -16 -12 -17 4 -4 16 13 21 21 13 21 -2 0 -10 -8 -17
-17z"/>
<path d="M1035 152 c14 -13 174 -80 210 -87 17 -3 -8 10 -55 28 -47 19 -103
42 -125 52 -22 9 -35 13 -30 7z"/>
<path d="M2230 140 c-8 -5 -10 -10 -5 -10 6 0 17 5 25 10 8 5 11 10 5 10 -5 0
-17 -5 -25 -10z"/>
<path d="M2180 120 c-8 -5 -10 -10 -5 -10 6 0 17 5 25 10 8 5 11 10 5 10 -5 0
-17 -5 -25 -10z"/>
<path d="M1300 50 c14 -4 34 -8 45 -8 16 0 15 2 -5 8 -14 4 -34 8 -45 8 -16 0
-15 -2 5 -8z"/>
<path d="M1400 30 c19 -5 71 -11 115 -14 71 -4 73 -4 20 3 -133 18 -172 21
-135 11z"/>
</g>
</svg>
